<?xml version="1.0" standalone="no"?>
<!DOCTYPE svg PUBLIC "-//W3C//DTD SVG 1.1//EN" "http://www.w3.org/Graphics/SVG/1.1/DTD/svg11.dtd" >
<svg xmlns="http://www.w3.org/2000/svg">
<metadata>
<json>
<![CDATA[
{
	"fontFamily": "mgz_icons",
	"fontURL": "https://linearicons.com",
	"designerURL": "https://perxis.com",
	"license": "https://linearicons.com/free/license",
	"licenseURL": "https://linearicons.com/free/license",
	"description": "Designed by Perxis (https://perxis.com).\nFont generated by IcoMoon.",
	"copyright": "Copyright © 2015 Perxis.com. All Rights Reserved.",
	"version": "Version 1.0",
	"majorVersion": 0,
	"fontId": "mgz_icons",
	"psName": "mgz_icons",
	"subFamily": "Regular",
	"fullName": "mgz_icons"
}
]]>
</json>
</metadata>
<defs>
<font id="mgz_icons" horiz-adv-x="1024">
<font-face units-per-em="1024" ascent="960" descent="-64" />
<missing-glyph horiz-adv-x="1024" />
<glyph unicode="&#x20;" horiz-adv-x="512" d="" />
<glyph unicode="&#x23f8;" glyph-name="row-layout" data-tags="row-layout" d="M92.18-59.978h360.704v961.877h-420.822v-961.877h60.118zM152.298 60.256v721.409h180.352v-721.409h-180.352zM933.823-59.978h-360.704v961.877h420.822v-961.877h-60.118zM873.705 60.256v721.409h-180.352v-721.409h180.352z" />
<glyph unicode="&#xe5c4;" glyph-name="icon-arrow_back" data-tags="icon-arrow_back" d="M856.507 428.149v-84.246h-521.526l238.699-240.705-60.177-60.177-343.004 343.004 343.004 343.004 60.177-60.177-238.699-240.705h521.526z" />
<glyph unicode="&#xe5c5;" glyph-name="icon-arrow_drop_down" data-tags="icon-arrow_drop_down" d="M298.875 472.278h429.256l-214.628-214.628z" />
<glyph unicode="&#xe5c6;" glyph-name="icon-arrow_back1" data-tags="icon-arrow_back" d="M856.507 428.149v-84.246h-521.526l238.699-240.705-60.177-60.177-343.004 343.004 343.004 343.004 60.177-60.177-238.699-240.705h521.526z" />
<glyph unicode="&#xe5c7;" glyph-name="icon-arrow_drop_up" data-tags="icon-arrow_drop_up" d="M298.875 299.773l214.628 214.628 214.628-214.628h-429.256z" />
<glyph unicode="&#xe5c8;" glyph-name="icon-arrow_forward" data-tags="icon-arrow_forward" d="M513.502 729.028l343.004-343.004-343.004-343.004-60.177 60.177 238.699 240.705h-521.526v84.246h521.526l-238.699 240.705z" />
<glyph unicode="&#xe5c9;" glyph-name="icon-arrow_drop_down1" data-tags="icon-arrow_drop_down" d="M298.875 472.278h429.256l-214.628-214.628z" />
<glyph unicode="&#xe5ca;" glyph-name="icon-check" data-tags="icon-check" d="M385.127 207.503l453.327 453.327 60.177-60.177-513.502-513.502-238.699 238.699 60.177 60.177z" />
<glyph unicode="&#xe5cb;" glyph-name="icon-arrow_drop_up1" data-tags="icon-arrow_drop_up" d="M298.875 299.773l214.628 214.628 214.628-214.628h-429.256z" />
<glyph unicode="&#xe5cc;" glyph-name="icon-arrow_forward1" data-tags="icon-arrow_forward" d="M513.502 729.028l343.004-343.004-343.004-343.004-60.177 60.177 238.699 240.705h-521.526v84.246h521.526l-238.699 240.705z" />
<glyph unicode="&#xe5cd;" glyph-name="icon-close" data-tags="icon-close" d="M812.378 624.725l-238.699-238.699 238.699-238.699-60.177-60.177-238.699 238.699-238.699-238.699-60.177 60.177 238.699 238.699-238.699 238.699 60.177 60.177 238.699-238.699 238.699 238.699z" />
<glyph unicode="&#xe5ce;" glyph-name="icon-check1" data-tags="icon-check" d="M385.127 207.503l453.327 453.327 60.177-60.177-513.502-513.502-238.699 238.699 60.177 60.177z" />
<glyph unicode="&#xe5cf;" glyph-name="icon-close1" data-tags="icon-close" d="M812.378 624.725l-238.699-238.699 238.699-238.699-60.177-60.177-238.699 238.699-238.699-238.699-60.177 60.177 238.699 238.699-238.699 238.699 60.177 60.177 238.699-238.699 238.699 238.699z" />
<glyph unicode="&#xe5d8;" glyph-name="icon-arrow_upward" data-tags="icon-arrow_upward" d="M170.499 386.025l343.004 343.004 343.004-343.004-62.183-60.177-238.699 238.699v-521.526h-84.246v521.526l-240.705-238.699z" />
<glyph unicode="&#xe5d9;" glyph-name="icon-arrow_upward1" data-tags="icon-arrow_upward" d="M170.499 386.025l343.004 343.004 343.004-343.004-62.183-60.177-238.699 238.699v-521.526h-84.246v521.526l-240.705-238.699z" />
<glyph unicode="&#xe5db;" glyph-name="icon-arrow_downward" data-tags="icon-arrow_downward" d="M856.507 386.025l-343.004-343.004-343.004 343.004 62.183 60.177 238.699-238.699v521.526h84.246v-521.526l240.705 238.699z" />
<glyph unicode="&#xe5dc;" glyph-name="icon-arrow_downward1" data-tags="icon-arrow_downward" d="M856.507 386.025l-343.004-343.004-343.004 343.004 62.183 60.177 238.699-238.699v521.526h84.246v-521.526l240.705 238.699z" />
<glyph unicode="&#xe600;" glyph-name="uniE600" data-tags="uniE600" d="M875.779 831.799c-131.746 63.032-288.974 5.682-350.979-128.055-4.332-9.307-8.056-20.956-11.361-34.502-3.305 13.543-7.029 25.195-11.297 34.502-62.070 133.735-219.138 191.087-350.915 128.055-131.585-63.032-188.038-222.571-126.033-356.339 62.038-133.735 488.117-517.194 488.117-517.194s0.032 0.448 0.096 1.155c0.096-0.707 0.128-1.155 0.128-1.155s426.271 383.458 488.309 517.194c61.973 133.768 5.682 293.306-126.065 356.339z" />
<glyph unicode="&#xe601;" glyph-name="uniE6001" data-tags="uniE600" d="M875.779 831.799c-131.746 63.032-288.974 5.682-350.979-128.055-4.332-9.307-8.056-20.956-11.361-34.502-3.305 13.543-7.029 25.195-11.297 34.502-62.070 133.735-219.138 191.087-350.915 128.055-131.585-63.032-188.038-222.571-126.033-356.339 62.038-133.735 488.117-517.194 488.117-517.194s0.032 0.448 0.096 1.155c0.096-0.707 0.128-1.155 0.128-1.155s426.271 383.458 488.309 517.194c61.973 133.768 5.682 293.306-126.065 356.339z" />
<glyph unicode="&#xe602;" glyph-name="cms" data-tags="cms" horiz-adv-x="1037" d="M979.661-63.965h-913.061v913.061h913.061v-913.061zM915.301 784.737h-784.341v-784.384h784.341v784.384zM222.082 95.708h153.325v373.125h-153.325v-373.125zM467.692 98.281h351.962v367.606h-351.962v-367.606zM222.082 559.377h597.614v147.557h-597.614v-147.557z" />
<glyph unicode="&#xe603;" glyph-name="cms1" data-tags="cms" horiz-adv-x="1037" d="M979.661-63.965h-913.061v913.061h913.061v-913.061zM915.301 784.737h-784.341v-784.384h784.341v784.384zM222.082 95.708h153.325v373.125h-153.325v-373.125zM467.692 98.281h351.962v367.606h-351.962v-367.606zM222.082 559.377h597.614v147.557h-597.614v-147.557z" />
<glyph unicode="&#xe604;" glyph-name="uniE604" data-tags="uniE604" d="M192.146-106.082h642.681v642.039h-642.681v-642.039zM638.541 416.471c0 19.865 16.112 35.913 36.009 35.913 19.865 0 35.977-16.048 35.977-35.913v-378.58c0-19.833-16.112-35.945-35.977-35.945-19.897 0-36.009 16.112-36.009 35.945v378.58zM477.493 416.471c0 19.865 16.112 35.913 35.945 35.913s35.945-16.048 35.945-35.913v-378.58c0-19.833-16.112-35.945-35.945-35.945s-35.945 16.112-35.945 35.945v378.58zM316.125 416.471c0 19.865 16.048 35.913 35.945 35.913 19.833 0 35.945-16.048 35.945-35.913v-378.58c0-19.833-16.112-35.945-35.945-35.945-19.897 0-35.945 16.112-35.945 35.945v378.58zM848.916 793.607h-142.882v21.855c0 58.251-39.637 105.461-97.886 105.461h-189.996c-58.187 0-97.245-47.21-97.245-105.461v-21.855h-142.882c-27.473 0-49.681-22.242-49.681-49.648v-144.391h770.254v144.391c0 27.409-22.146 49.648-49.681 49.648zM641.75 793.607h-257.137v29.495c0.064 18.55 15.021 33.571 33.539 33.635h189.996c18.486-0.064 33.507-15.085 33.603-33.635v-29.495z" />
<glyph unicode="&#xe605;" glyph-name="uniE605" data-tags="uniE605" d="M1026.043 516.732c-2.633 8.216-10.334 13.799-18.934 13.799h-362.469l-112.232 344.496c-2.697 8.216-10.302 13.799-18.934 13.799-8.568 0-16.24-5.583-18.934-13.799l-112.81-344.496h-361.827c-8.536 0-16.24-5.583-18.934-13.799-2.633-8.152 0.256-17.235 7.189-22.242l292.825-213.264-112.842-346.454c-2.665-8.216 0.256-17.235 7.253-22.306 6.933-5.007 16.464-5.007 23.397 0l294.654 213.874 294.141-213.874c3.596-2.569 7.541-3.884 11.649-3.884 4.204 0 8.312 1.315 11.745 3.884 7.157 5.071 9.95 14.058 7.221 22.306l-112.81 346.454 293.435 213.264c6.997 5.007 9.886 14.026 7.221 22.242z" />
<glyph unicode="&#xe606;" glyph-name="uniE6041" data-tags="uniE604" d="M192.146-106.082h642.681v642.039h-642.681v-642.039zM638.541 416.471c0 19.865 16.112 35.913 36.009 35.913 19.865 0 35.977-16.048 35.977-35.913v-378.58c0-19.833-16.112-35.945-35.977-35.945-19.897 0-36.009 16.112-36.009 35.945v378.58zM477.493 416.471c0 19.865 16.112 35.913 35.945 35.913s35.945-16.048 35.945-35.913v-378.58c0-19.833-16.112-35.945-35.945-35.945s-35.945 16.112-35.945 35.945v378.58zM316.125 416.471c0 19.865 16.048 35.913 35.945 35.913 19.833 0 35.945-16.048 35.945-35.913v-378.58c0-19.833-16.112-35.945-35.945-35.945-19.897 0-35.945 16.112-35.945 35.945v378.58zM848.916 793.607h-142.882v21.855c0 58.251-39.637 105.461-97.886 105.461h-189.996c-58.187 0-97.245-47.21-97.245-105.461v-21.855h-142.882c-27.473 0-49.681-22.242-49.681-49.648v-144.391h770.254v144.391c0 27.409-22.146 49.648-49.681 49.648zM641.75 793.607h-257.137v29.495c0.064 18.55 15.021 33.571 33.539 33.635h189.996c18.486-0.064 33.507-15.085 33.603-33.635v-29.495z" />
<glyph unicode="&#xe607;" glyph-name="uniE6051" data-tags="uniE605" d="M1026.043 516.732c-2.633 8.216-10.334 13.799-18.934 13.799h-362.469l-112.232 344.496c-2.697 8.216-10.302 13.799-18.934 13.799-8.568 0-16.24-5.583-18.934-13.799l-112.81-344.496h-361.827c-8.536 0-16.24-5.583-18.934-13.799-2.633-8.152 0.256-17.235 7.189-22.242l292.825-213.264-112.842-346.454c-2.665-8.216 0.256-17.235 7.253-22.306 6.933-5.007 16.464-5.007 23.397 0l294.654 213.874 294.141-213.874c3.596-2.569 7.541-3.884 11.649-3.884 4.204 0 8.312 1.315 11.745 3.884 7.157 5.071 9.95 14.058 7.221 22.306l-112.81 346.454 293.435 213.264c6.997 5.007 9.886 14.026 7.221 22.242z" />
<glyph unicode="&#xe608;" glyph-name="product" data-tags="product" horiz-adv-x="957" d="M252.877 767.247l-160.54-92.663 379.152-218.846 160.493 92.663-379.105 218.846zM848.12 673.136l-379.105 218.893-145.648-84.074 379.105-218.846 145.648 84.028zM504.259 393.23v-434.937l377.938 218.146v434.984l-377.938-218.192zM55.831 176.485l377.891-218.146v437.785l-377.891 218.099v-437.738z" />
<glyph unicode="&#xe609;" glyph-name="product1" data-tags="product" horiz-adv-x="957" d="M252.877 767.247l-160.54-92.663 379.152-218.846 160.493 92.663-379.105 218.846zM848.12 673.136l-379.105 218.893-145.648-84.074 379.105-218.846 145.648 84.028zM504.259 393.23v-434.937l377.938 218.146v434.984l-377.938-218.192zM55.831 176.485l377.891-218.146v437.785l-377.891 218.099v-437.738z" />
<glyph unicode="&#xe60a;" glyph-name="uniE60A" data-tags="uniE60A" d="M769.081 412.628l-426.39 438.457-74.789-70.167 357.619-367.63-367.632-378.010 73.173-71.524 412.525 424.153-0.402 0.402z" />
<glyph unicode="&#xe60b;" glyph-name="sales" data-tags="sales" horiz-adv-x="662" d="M427.754 306.609c-15.914 13.551-42.922 25.828-81.027 36.831v-199.357c11.568 1.462 23.798 4.343 36.406 8.878 12.654 4.438 23.939 10.862 33.903 19.125 10.011 8.451 18.227 18.604 24.601 30.739 6.657 12.042 9.678 26.443 9.678 43.016 0.047 26.914-7.745 47.36-23.562 60.77zM578.429 181.905c-7.13-23.186-19.831-45.897-38.246-67.947-18.557-22.241-43.205-41.978-74.226-59.166-30.975-17.424-70.639-27.764-119.226-31.21v-88.346h-57.182v88.346c-72.292 5.618-128.861 29.324-169.609 71.584-40.656 42.213-64.123 104.401-70.639 186.089h136.65c-0.756-39.475 9.019-70.686 28.944-93.539 20.21-22.806 44.906-37.445 74.653-43.583v217.159c-3.069 1.321-7.507 2.928-13.033 4.579-5.523 1.795-11.426 3.352-17.992 4.723-23.845 6.848-47.313 15.064-70.498 24.366-23.562 9.396-44.243 21.767-62.706 37.445-18.51 15.629-33.194 34.942-44.008 58.127-11.144 23.28-16.526 52.13-16.526 86.742 0 35.415 6.186 66.531 18.839 93.586 12.701 26.914 29.229 49.674 50.005 67.9 20.681 18.368 44.432 32.676 71.678 42.544 27.15 10.152 55.199 16.197 84.238 18.368v79.894h57.182v-79.894c29.229-3.54 56.473-10.199 81.878-20.352 25.498-10.058 47.928-23.798 67.335-41.601 19.642-17.565 35.462-39.57 47.595-65.963 12.324-26.208 19.407-57.277 21.343-93.445h-137.689c-0.521 27.717-8.64 51.232-23.986 70.639-15.77 19.36-34.377 29.086-56.473 29.086v-183.869c7.886-2.078 15.676-4.155 23.798-6.138 8.122-2.078 16.573-4.579 25.64-7.318 47.786-14.025 84.664-31.21 110.492-51.468 25.875-20.352 44.858-41.789 57.088-63.839 12.371-22.241 19.69-44.385 21.767-66.531 2.454-22.147 3.54-41.836 3.54-59.213 0.047-15.252-3.54-34.518-10.623-57.747zM229.577 656.736c-8.404-7.177-15.158-16.244-20.022-26.961-4.817-10.814-7.083-23.421-7.083-37.87 0-22.9 6.754-40.656 20.163-52.98 13.692-12.654 35.839-22.618 66.908-30.219v169.326c-10.862 0-21.579-1.701-31.919-5.241-10.246-3.446-19.69-8.878-28.047-16.055z" />
<glyph unicode="&#xe60d;" glyph-name="uniE611" data-tags="uniE611" d="M0 441.761h1027.006v-68.329h-1027.006v68.329z" />
<glyph unicode="&#xe60e;" glyph-name="stores" data-tags="stores" horiz-adv-x="1283" d="M1101.506 835.223c19.834 3.735 35.003 21.295 35.003 42.47-0.058 23.86-19.253 43.229-42.938 43.229h-903.151c-23.744 0-42.88-19.369-42.88-43.229 0-21.12 15.052-38.68 34.945-42.47l-182.485-355.461v-69.191c0-31.036 32.612-56.181 72.807-56.181 13.476 0 26.076 2.917 36.929 7.819v-468.289h1064.4v468.289c10.911-4.959 23.395-7.819 36.987-7.819 40.195 0 72.807 25.146 72.807 56.181v69.191l-182.427 355.461zM215.388 354.391c-38.328 0-69.425 25.146-69.425 56.181v6.475h-0.349v62.714l137.564 354.703h109.969l-108.279-354.703v-69.191c0 0 0 0 0 0 0-31.036-31.094-56.181-69.483-56.181zM499.91 354.391c-38.328 0-69.425 25.146-69.425 56.181v69.191l57.522 354.703h109.562l-28.177-354.703v-69.132c-0.058-31.094-31.094-56.24-69.483-56.24zM784.372 354.391c-38.328 0-69.366 25.146-69.366 56.181v69.191l-28.238 354.703h109.212l57.464-354.703v-69.191c0-0.934 0.175-1.926 0.233-2.801-1.809-29.753-32.144-53.38-69.308-53.38zM1137.967 410.571c0-31.036-31.094-56.181-69.425-56.181s-69.366 25.146-69.366 56.181v69.191l-108.337 354.703h109.911l137.622-354.703v-62.656h-0.349v-6.533h-0.058z" />
<glyph unicode="&#xe60f;" glyph-name="uniE60F" data-tags="uniE60F" d="M0 441.761h1027.006v-68.329h-1027.006v68.329z" />
<glyph unicode="&#xe610;" glyph-name="uniE60F1" data-tags="uniE60F" d="M0 441.761h1027.006v-68.329h-1027.006v68.329z" />
<glyph unicode="&#xe615;" glyph-name="expand-close" data-tags="expand-close" d="M513.295 946.987c-283.464 0-513.295-229.805-513.295-513.295 0-283.464 229.83-513.295 513.295-513.295s513.295 229.856 513.295 513.295c0 283.49-229.805 513.295-513.295 513.295zM513.295-25.175c-253.405 0-458.842 205.462-458.842 458.816 0 253.405 205.462 458.842 458.842 458.842 253.431 0 458.842-205.436 458.842-458.842 0.026-253.354-205.411-458.816-458.842-458.816zM760.756 320.763l30.417 38.438-265.86 206.615-20.807 1.615-259.479-208.229 28.854-40.026 237.031 177.787z" />
<glyph unicode="&#xe616;" glyph-name="expand-open" data-tags="expand-open" d="M513.295 946.987c-283.464 0-513.295-229.805-513.295-513.295 0-283.464 229.83-513.295 513.295-513.295s513.295 229.83 513.295 513.295c0 283.49-229.805 513.295-513.295 513.295zM513.295-25.175c-253.405 0-458.842 205.462-458.842 458.842 0 253.405 205.462 458.842 458.842 458.842 253.431 0 458.842-205.436 458.842-458.842 0.026-253.38-205.411-458.842-458.842-458.842zM265.86 492.143l-30.417-38.438 265.834-206.589 20.833-1.615 259.453 208.203-28.828 40.026-237.031-177.761z" />
<glyph unicode="&#xe617;" glyph-name="uniE617" data-tags="uniE617" d="M401.595 413.215l357.472 367.706-74.715 70.167-426.464-438.459 438.201-448.873 72.991 71.524z" />
<glyph unicode="&#xe61c;" glyph-name="uniE61C" data-tags="uniE61C" d="M1027.006 441.761h-478.424v479.162h-68.233v-479.162h-480.35v-68.329h480.35v-479.515h68.233v479.515h478.424z" />
<glyph unicode="&#xe61d;" glyph-name="uniE61C1" data-tags="uniE61C" d="M1027.006 441.761h-478.424v479.162h-68.233v-479.162h-480.35v-68.329h480.35v-479.515h68.233v479.515h478.424z" />
<glyph unicode="&#xe61e;" glyph-name="uniE61E" data-tags="uniE61E" d="M255.917 21.844v256.014h-255.917v-256.014h255.917zM640.37 793.030h-254.601v-771.153h254.601v771.153zM1026.171 534.738h-255.5v-512.861h255.5v512.861z" />
<glyph unicode="&#xe61f;" glyph-name="uniE61E1" data-tags="uniE61E" d="M255.917 21.844v256.014h-255.917v-256.014h255.917zM640.37 793.030h-254.601v-771.153h254.601v771.153zM1026.171 534.738h-255.5v-512.861h255.5v512.861z" />
<glyph unicode="&#xe620;" glyph-name="uniE620" data-tags="uniE620" d="M1027.006 441.761h-478.424v479.162h-68.233v-479.162h-480.35v-68.329h480.35v-479.515h68.233v479.515h478.424z" />
<glyph unicode="&#xe621;" glyph-name="uniE621" data-tags="uniE621" d="M519.848 530.626l404.859-393.6 77.318 82.38-482.84 469.416-494.173-482.364 78.751-80.437z" />
<glyph unicode="&#xe622;" glyph-name="uniE622" data-tags="uniE622" d="M507.122 284.218l-404.825 393.6-77.281-82.38 482.767-469.416 494.247 482.364-78.895 80.437z" />
<glyph unicode="&#xe623;" glyph-name="uniE6211" data-tags="uniE621" d="M519.848 530.626l404.859-393.6 77.318 82.38-482.84 469.416-494.173-482.364 78.751-80.437z" />
<glyph unicode="&#xe624;" glyph-name="uniE6221" data-tags="uniE622" d="M507.122 284.218l-404.825 393.6-77.281-82.38 482.767-469.416 494.247 482.364-78.895 80.437z" />
<glyph unicode="&#xe625;" glyph-name="uniE625" data-tags="uniE625" d="M1007.109 530.534h-362.469l-112.232 344.496c-2.697 8.216-10.302 13.799-18.934 13.799-8.568 0-16.24-5.583-18.934-13.799l-112.81-344.496h-361.827c-8.536 0-16.24-5.583-18.934-13.799-2.633-8.152 0.256-17.235 7.189-22.242l292.825-213.264-112.842-346.454c-2.665-8.216 0.256-17.235 7.253-22.306 6.933-5.007 16.464-5.007 23.397 0l294.654 213.874 294.141-213.874c3.596-2.569 7.541-3.884 11.649-3.884 4.204 0 8.312 1.315 11.745 3.884 7.157 5.071 9.95 14.058 7.221 22.306l-112.81 346.454 293.435 213.264c6.997 5.007 9.886 14.058 7.221 22.242-2.633 8.216-10.366 13.799-18.934 13.799zM668.805 299.617l96.698-296.997-252.002 183.257-252.676-183.417 96.795 297.126-251.071 182.807h310.059l96.795 295.617 96.314-295.617h310.573l-251.488-182.774z" />
<glyph unicode="&#xe626;" glyph-name="uniE6251" data-tags="uniE625" d="M1007.109 530.534h-362.469l-112.232 344.496c-2.697 8.216-10.302 13.799-18.934 13.799-8.568 0-16.24-5.583-18.934-13.799l-112.81-344.496h-361.827c-8.536 0-16.24-5.583-18.934-13.799-2.633-8.152 0.256-17.235 7.189-22.242l292.825-213.264-112.842-346.454c-2.665-8.216 0.256-17.235 7.253-22.306 6.933-5.007 16.464-5.007 23.397 0l294.654 213.874 294.141-213.874c3.596-2.569 7.541-3.884 11.649-3.884 4.204 0 8.312 1.315 11.745 3.884 7.157 5.071 9.95 14.058 7.221 22.306l-112.81 346.454 293.435 213.264c6.997 5.007 9.886 14.058 7.221 22.242-2.633 8.216-10.366 13.799-18.934 13.799zM668.805 299.617l96.698-296.997-252.002 183.257-252.676-183.417 96.795 297.126-251.071 182.807h310.059l96.795 295.617 96.314-295.617h310.573l-251.488-182.774z" />
<glyph unicode="&#xe627;" glyph-name="icon-sync" data-tags="icon-sync" d="M513.502 129.274v128.375l170.499-170.499-170.499-172.504v128.375c-188.552 0-343.004 154.453-343.004 343.004 0 66.195 20.060 130.381 54.159 182.534l62.183-62.183c-20.060-36.105-30.087-76.222-30.087-120.352 0-142.417 114.335-256.751 256.751-256.751zM513.502 729.028c188.552 0 343.004-154.453 343.004-343.004 0-66.195-20.060-130.381-54.159-182.534l-62.183 62.183c20.060 36.105 30.087 76.222 30.087 120.352 0 142.417-114.335 256.751-256.751 256.751v-128.375l-170.499 170.499 170.499 172.504v-128.375z" />
<glyph unicode="&#xe628;" glyph-name="icon-sync1" data-tags="icon-sync" d="M513.502 129.274v128.375l170.499-170.499-170.499-172.504v128.375c-188.552 0-343.004 154.453-343.004 343.004 0 66.195 20.060 130.381 54.159 182.534l62.183-62.183c-20.060-36.105-30.087-76.222-30.087-120.352 0-142.417 114.335-256.751 256.751-256.751zM513.502 729.028c188.552 0 343.004-154.453 343.004-343.004 0-66.195-20.060-130.381-54.159-182.534l-62.183 62.183c20.060 36.105 30.087 76.222 30.087 120.352 0 142.417-114.335 256.751-256.751 256.751v-128.375l-170.499 170.499 170.499 172.504v-128.375z" />
<glyph unicode="&#xe629;" glyph-name="uniE629" data-tags="uniE629" d="M519.848 530.626l404.859-393.6 77.318 82.38-482.84 469.416-494.173-482.364 78.751-80.437z" />
<glyph unicode="&#xe62a;" glyph-name="uniE62A" data-tags="uniE62A" d="M507.122 284.218l-404.825 393.6-77.281-82.38 482.767-469.416 494.247 482.364-78.895 80.437z" />
<glyph unicode="&#xe62d;" glyph-name="check-mage" data-tags="check-mage" horiz-adv-x="1179" d="M999.542 793.766l-515.062-515.062-257.55 257.588-128.756-128.795 386.345-386.383 643.78 643.895z" />
<glyph unicode="&#xe62e;" glyph-name="check-mage1" data-tags="check-mage" horiz-adv-x="1179" d="M999.542 793.766l-515.062-515.062-257.55 257.588-128.756-128.795 386.345-386.383 643.78 643.895z" />
<glyph unicode="&#xe62f;" glyph-name="close-mage" data-tags="close-mage" horiz-adv-x="1179" d="M1097.604 842.986l-77.938 77.938-424.572-424.59-424.573 424.59-77.938-77.9 424.593-424.611-424.555-424.572 77.9-77.938 424.581 424.581 424.526-424.543 77.899 77.938-424.506 424.524z" />
<glyph unicode="&#xe630;" glyph-name="delete" data-tags="delete" horiz-adv-x="1179" d="M338.532-103.077h514.529l64.701 647.812h-641.004l61.772-647.812zM739.559 766.303v116.85c0 19.248-15.443 34.804-34.463 34.804h-218.486c-19.058 0-34.463-15.595-34.463-34.804v-114.91c-73.792-8.406-150.59-24.686-227.159-52.491v-107.304h740.167v110.155c0 0-90.338 31.496-225.637 47.699zM670.901 772.731c-47.89 3.233-99.543 4.108-153.747 0.989v61.62c0 9.546 7.644 17.383 17.194 17.383h119.284c9.546 0 17.269-7.837 17.269-17.383v-62.609z" />
<glyph unicode="&#xe631;" glyph-name="close-mage1" data-tags="close-mage" horiz-adv-x="1179" d="M1097.604 842.986l-77.938 77.938-424.572-424.59-424.573 424.59-77.938-77.9 424.593-424.611-424.555-424.572 77.9-77.938 424.581 424.581 424.526-424.543 77.899 77.938-424.506 424.524z" />
<glyph unicode="&#xe632;" glyph-name="delete1" data-tags="delete" horiz-adv-x="1179" d="M338.532-103.077h514.529l64.701 647.812h-641.004l61.772-647.812zM739.559 766.303v116.85c0 19.248-15.443 34.804-34.463 34.804h-218.486c-19.058 0-34.463-15.595-34.463-34.804v-114.91c-73.792-8.406-150.59-24.686-227.159-52.491v-107.304h740.167v110.155c0 0-90.338 31.496-225.637 47.699zM670.901 772.731c-47.89 3.233-99.543 4.108-153.747 0.989v61.62c0 9.546 7.644 17.383 17.194 17.383h119.284c9.546 0 17.269-7.837 17.269-17.383v-62.609z" />
<glyph unicode="&#xe633;" glyph-name="help" data-tags="help" horiz-adv-x="1179" d="M595.093 898.291c-271.13 0-490.87-219.741-490.87-490.794s219.741-490.87 490.87-490.87 490.87 219.779 490.87 490.87-219.779 490.794-490.87 490.794zM637.618 91.901c-12.021-11.752-26.474-17.687-43.286-17.687-8.178 0-16.015 1.52-23.469 4.601-7.379 3.043-13.885 7.189-19.513 12.21-5.628 5.173-10.156 11.259-13.427 18.41-3.346 7.151-4.983 14.795-4.983 23.011 0 16.356 6.010 30.393 18.031 42.183 11.983 11.714 26.474 17.649 43.324 17.649 16.356 0 30.696-5.707 42.906-16.849 12.286-11.221 18.372-25.065 18.372-41.459-0.038-16.432-6.010-30.393-17.993-42.107zM781.209 537.127c-3.994-13.806-9.777-26.474-17.231-37.885-7.492-11.487-16.546-22.556-27.158-33.167s-22.556-21.681-35.755-33.129c-11.487-9.815-20.843-18.372-27.994-25.865-7.189-7.417-12.934-14.912-17.269-22.404-4.298-7.454-7.303-15.443-9.053-24.077-1.713-8.633-2.626-49.868-2.626-62.533v-22.404h-101.673v32.712c0 13.768 0.989 56.826 3.043 67.782s5.173 21.188 9.508 30.962 10.042 19.285 17.231 28.453c7.189 9.167 16.28 18.941 27.158 29.29l38.761 37.010c10.88 9.777 20.237 20.692 28.032 32.712 7.761 12.096 11.562 26.778 11.562 44.009 0 22.366-6.999 41.156-21.074 56.371-14.113 15.215-34.043 22.859-59.869 22.859-13.199 0-25.144-2.395-35.755-7.303-10.649-4.832-19.854-11.487-27.577-19.816-7.761-8.368-13.616-17.954-17.649-28.87-3.994-10.88-6.352-22.063-6.886-33.626l-105.933 9.471c3.422 27.577 10.765 52.112 21.984 73.679 11.145 21.529 25.637 39.712 43.437 54.734 17.762 14.873 38.189 26.247 61.203 34.043 22.935 7.723 47.66 11.638 74.058 11.638 24.686 0 48.117-3.615 70.255-10.804 22.023-7.189 41.614-17.762 58.577-31.875 16.887-14.075 30.317-31.458 40.053-52.112 9.737-20.692 14.606-44.54 14.606-71.473 0-18.41-2.016-34.577-6.010-48.307z" />
<glyph unicode="&#xe634;" glyph-name="help1" data-tags="help" horiz-adv-x="1179" d="M595.093 898.291c-271.13 0-490.87-219.741-490.87-490.794s219.741-490.87 490.87-490.87 490.87 219.779 490.87 490.87-219.779 490.794-490.87 490.794zM637.618 91.901c-12.021-11.752-26.474-17.687-43.286-17.687-8.178 0-16.015 1.52-23.469 4.601-7.379 3.043-13.885 7.189-19.513 12.21-5.628 5.173-10.156 11.259-13.427 18.41-3.346 7.151-4.983 14.795-4.983 23.011 0 16.356 6.010 30.393 18.031 42.183 11.983 11.714 26.474 17.649 43.324 17.649 16.356 0 30.696-5.707 42.906-16.849 12.286-11.221 18.372-25.065 18.372-41.459-0.038-16.432-6.010-30.393-17.993-42.107zM781.209 537.127c-3.994-13.806-9.777-26.474-17.231-37.885-7.492-11.487-16.546-22.556-27.158-33.167s-22.556-21.681-35.755-33.129c-11.487-9.815-20.843-18.372-27.994-25.865-7.189-7.417-12.934-14.912-17.269-22.404-4.298-7.454-7.303-15.443-9.053-24.077-1.713-8.633-2.626-49.868-2.626-62.533v-22.404h-101.673v32.712c0 13.768 0.989 56.826 3.043 67.782s5.173 21.188 9.508 30.962 10.042 19.285 17.231 28.453c7.189 9.167 16.28 18.941 27.158 29.29l38.761 37.010c10.88 9.777 20.237 20.692 28.032 32.712 7.761 12.096 11.562 26.778 11.562 44.009 0 22.366-6.999 41.156-21.074 56.371-14.113 15.215-34.043 22.859-59.869 22.859-13.199 0-25.144-2.395-35.755-7.303-10.649-4.832-19.854-11.487-27.577-19.816-7.761-8.368-13.616-17.954-17.649-28.87-3.994-10.88-6.352-22.063-6.886-33.626l-105.933 9.471c3.422 27.577 10.765 52.112 21.984 73.679 11.145 21.529 25.637 39.712 43.437 54.734 17.762 14.873 38.189 26.247 61.203 34.043 22.935 7.723 47.66 11.638 74.058 11.638 24.686 0 48.117-3.615 70.255-10.804 22.023-7.189 41.614-17.762 58.577-31.875 16.887-14.075 30.317-31.458 40.053-52.112 9.737-20.692 14.606-44.54 14.606-71.473 0-18.41-2.016-34.577-6.010-48.307z" />
<glyph unicode="&#xe806;" glyph-name="accordion" data-tags="accordion" d="M963.332 664.172h-898.631c-35.945 0-64.701-28.756-64.701-63.674v-385.127c0-35.945 28.756-64.701 64.701-64.701h898.631c34.918 0 63.674 28.756 63.674 64.701v385.127c0 34.918-28.756 63.674-63.674 63.674zM983.872 215.371c0-12.324-9.243-21.567-20.54-21.567h-898.631c-12.324 0-21.567 9.243-21.567 21.567v385.127c0 11.297 9.243 20.54 21.567 20.54h898.631c11.297 0 20.54-9.243 20.54-20.54v-385.127zM106.808 749.413h813.389c11.297 0 21.567 10.27 21.567 21.567s-10.27 21.567-21.567 21.567h-813.389c-11.297 0-21.567-9.243-21.567-21.567s10.27-21.567 21.567-21.567zM106.808 877.789h813.389c11.297 0 21.567 10.27 21.567 21.567s-10.27 21.567-21.567 21.567h-813.389c-11.297 0-21.567-9.243-21.567-21.567s10.27-21.567 21.567-21.567zM920.198-62.948h-813.389c-11.297 0-21.567-10.27-21.567-21.567s10.27-21.567 21.567-21.567h813.389c11.297 0 21.567 9.243 21.567 21.567s-10.27 21.567-21.567 21.567zM920.198 65.427h-813.389c-11.297 0-21.567-10.27-21.567-21.567s10.27-21.567 21.567-21.567h813.389c11.297 0 21.567 9.243 21.567 21.567s-10.27 21.567-21.567 21.567z" />
<glyph unicode="&#xe807;" glyph-name="accordion1" data-tags="accordion" d="M963.332 664.172h-898.631c-35.945 0-64.701-28.756-64.701-63.674v-385.127c0-35.945 28.756-64.701 64.701-64.701h898.631c34.918 0 63.674 28.756 63.674 64.701v385.127c0 34.918-28.756 63.674-63.674 63.674zM983.872 215.371c0-12.324-9.243-21.567-20.54-21.567h-898.631c-12.324 0-21.567 9.243-21.567 21.567v385.127c0 11.297 9.243 20.54 21.567 20.54h898.631c11.297 0 20.54-9.243 20.54-20.54v-385.127zM106.808 749.413h813.389c11.297 0 21.567 10.27 21.567 21.567s-10.27 21.567-21.567 21.567h-813.389c-11.297 0-21.567-9.243-21.567-21.567s10.27-21.567 21.567-21.567zM106.808 877.789h813.389c11.297 0 21.567 10.27 21.567 21.567s-10.27 21.567-21.567 21.567h-813.389c-11.297 0-21.567-9.243-21.567-21.567s10.27-21.567 21.567-21.567zM920.198-62.948h-813.389c-11.297 0-21.567-10.27-21.567-21.567s10.27-21.567 21.567-21.567h813.389c11.297 0 21.567 9.243 21.567 21.567s-10.27 21.567-21.567 21.567zM920.198 65.427h-813.389c-11.297 0-21.567-10.27-21.567-21.567s10.27-21.567 21.567-21.567h813.389c11.297 0 21.567 9.243 21.567 21.567s-10.27 21.567-21.567 21.567z" />
<glyph unicode="&#xe812;" glyph-name="button" data-tags="button" d="M463.179 530.662c-6.162 5.135-15.405 7.189-22.594 3.081-8.216-3.081-12.324-11.297-12.324-19.513v-385.127c0-8.216 5.135-16.432 13.351-19.513 7.189-3.081 16.432-1.027 22.594 4.108l64.701 64.701 72.917-144.807c2.054-5.135 7.189-9.243 12.324-10.27 2.054-1.027 4.108-1.027 6.162-1.027 4.108 0 8.216 1.027 11.297 3.081l95.511 55.458c5.135 3.081 8.216 8.216 10.27 13.351 1.027 6.162 0 11.297-3.081 16.432l-75.998 125.294h90.376c9.243 0 17.459 6.162 20.54 14.378s0 17.459-6.162 23.621l-299.886 256.751zM620.312 279.045c-7.189 0-14.378-4.108-18.486-11.297-4.108-6.162-4.108-14.378 0-21.567l85.241-138.645-57.512-33.891-74.971 150.969c-3.081 6.162-9.243 10.27-16.432 11.297-1.027 0-2.054 0-3.081 0-6.162 0-11.297-2.054-15.405-6.162l-49.296-48.269v286.535l220.806-188.969c0 0-70.863 0-70.863 0zM920.198 792.547h-813.389c-58.539 0-106.808-48.269-106.808-106.808v-256.751c0-59.566 48.269-106.808 106.808-106.808h256.751c12.324 0 21.567 9.243 21.567 21.567s-9.243 20.54-21.567 20.54h-256.751c-34.918 0-63.674 28.756-63.674 64.701v256.751c0 34.918 28.756 63.674 63.674 63.674h813.389c34.918 0 63.674-28.756 63.674-63.674v-256.751c0-35.945-28.756-64.701-63.674-64.701h-149.942c-11.297 0-21.567-9.243-21.567-20.54s10.27-21.567 21.567-21.567h149.942c58.539 0 106.808 47.242 106.808 106.808v256.751c0 58.539-48.269 106.808-106.808 106.808z" />
<glyph unicode="&#xe813;" glyph-name="button1" data-tags="button" d="M463.179 530.662c-6.162 5.135-15.405 7.189-22.594 3.081-8.216-3.081-12.324-11.297-12.324-19.513v-385.127c0-8.216 5.135-16.432 13.351-19.513 7.189-3.081 16.432-1.027 22.594 4.108l64.701 64.701 72.917-144.807c2.054-5.135 7.189-9.243 12.324-10.27 2.054-1.027 4.108-1.027 6.162-1.027 4.108 0 8.216 1.027 11.297 3.081l95.511 55.458c5.135 3.081 8.216 8.216 10.27 13.351 1.027 6.162 0 11.297-3.081 16.432l-75.998 125.294h90.376c9.243 0 17.459 6.162 20.54 14.378s0 17.459-6.162 23.621l-299.886 256.751zM620.312 279.045c-7.189 0-14.378-4.108-18.486-11.297-4.108-6.162-4.108-14.378 0-21.567l85.241-138.645-57.512-33.891-74.971 150.969c-3.081 6.162-9.243 10.27-16.432 11.297-1.027 0-2.054 0-3.081 0-6.162 0-11.297-2.054-15.405-6.162l-49.296-48.269v286.535l220.806-188.969c0 0-70.863 0-70.863 0zM920.198 792.547h-813.389c-58.539 0-106.808-48.269-106.808-106.808v-256.751c0-59.566 48.269-106.808 106.808-106.808h256.751c12.324 0 21.567 9.243 21.567 21.567s-9.243 20.54-21.567 20.54h-256.751c-34.918 0-63.674 28.756-63.674 64.701v256.751c0 34.918 28.756 63.674 63.674 63.674h813.389c34.918 0 63.674-28.756 63.674-63.674v-256.751c0-35.945-28.756-64.701-63.674-64.701h-149.942c-11.297 0-21.567-9.243-21.567-20.54s10.27-21.567 21.567-21.567h149.942c58.539 0 106.808 47.242 106.808 106.808v256.751c0 58.539-48.269 106.808-106.808 106.808z" />
<glyph unicode="&#xe816;" glyph-name="checkbox" data-tags="checkbox" d="M235.184 193.804h-170.482c-35.945 0-64.701-28.756-64.701-64.701v-171.509c0-34.918 28.756-63.674 64.701-63.674h170.482c35.945 0 64.701 28.756 64.701 63.674v171.509c0 35.945-28.756 64.701-64.701 64.701zM256.751-42.408c0-11.297-9.243-20.54-21.567-20.54h-170.482c-12.324 0-21.567 9.243-21.567 20.54v171.509c0 12.324 9.243 21.567 21.567 21.567h170.482c12.324 0 21.567-9.243 21.567-21.567v-171.509zM406.694 707.306h598.745c12.324 0 21.567 9.243 21.567 21.567s-9.243 20.54-21.567 20.54h-598.745c-12.324 0-21.567-9.243-21.567-20.54s9.243-21.567 21.567-21.567zM1005.439 407.421h-598.745c-12.324 0-21.567-9.243-21.567-21.567s9.243-21.567 21.567-21.567h598.745c12.324 0 21.567 10.27 21.567 21.567s-9.243 21.567-21.567 21.567zM1005.439 65.427h-598.745c-12.324 0-21.567-10.27-21.567-21.567s9.243-21.567 21.567-21.567h598.745c12.324 0 21.567 9.243 21.567 21.567s-9.243 21.567-21.567 21.567zM302.967 911.681l-30.81-45.188c-10.27 7.189-23.621 11.297-36.972 11.297h-170.482c-35.945 0-64.701-28.756-64.701-63.674v-171.509c0-34.918 28.756-63.674 64.701-63.674h170.482c35.945 0 64.701 28.756 64.701 63.674v171.509c0 5.135-1.027 10.27-2.054 14.378l41.080 58.539c6.162 10.27 4.108 23.621-6.162 29.783-9.243 7.189-22.594 5.135-29.783-5.135zM256.751 642.605c0-11.297-9.243-21.567-21.567-21.567h-170.482c-12.324 0-21.567 10.27-21.567 21.567v171.509c0 11.297 9.243 21.567 21.567 21.567h170.482c5.135 0 8.216-2.054 12.324-4.108l-79.079-112.97-46.215 46.215c-8.216 8.216-21.567 8.216-30.81 0s-8.216-21.567 0-29.783l64.701-64.701c4.108-4.108 9.243-6.162 15.405-6.162 0 0 1.027 0 2.054 0 6.162 1.027 11.297 4.108 15.405 9.243l67.782 97.565v-128.375zM302.967 569.688l-30.81-45.188c-10.27 7.189-23.621 11.297-36.972 11.297h-170.482c-35.945 0-64.701-28.756-64.701-63.674v-171.509c0-35.945 28.756-64.701 64.701-64.701h170.482c35.945 0 64.701 28.756 64.701 64.701v171.509c0 5.135-1.027 9.243-2.054 14.378l41.080 58.539c6.162 9.243 4.108 22.594-6.162 29.783-9.243 7.189-22.594 4.108-29.783-5.135zM256.751 300.612c0-12.324-9.243-21.567-21.567-21.567h-170.482c-12.324 0-21.567 9.243-21.567 21.567v171.509c0 11.297 9.243 20.54 21.567 20.54h170.482c5.135 0 8.216-1.027 12.324-3.081l-79.079-112.97-46.215 46.215c-8.216 8.216-21.567 8.216-30.81 0s-8.216-22.594 0-30.81l64.701-63.674c4.108-4.108 9.243-6.162 15.405-6.162 0 0 1.027 0 2.054 0 6.162 0 11.297 4.108 15.405 9.243l67.782 96.538v-127.348z" />
<glyph unicode="&#xe817;" glyph-name="checkbox1" data-tags="checkbox" d="M235.184 193.804h-170.482c-35.945 0-64.701-28.756-64.701-64.701v-171.509c0-34.918 28.756-63.674 64.701-63.674h170.482c35.945 0 64.701 28.756 64.701 63.674v171.509c0 35.945-28.756 64.701-64.701 64.701zM256.751-42.408c0-11.297-9.243-20.54-21.567-20.54h-170.482c-12.324 0-21.567 9.243-21.567 20.54v171.509c0 12.324 9.243 21.567 21.567 21.567h170.482c12.324 0 21.567-9.243 21.567-21.567v-171.509zM406.694 707.306h598.745c12.324 0 21.567 9.243 21.567 21.567s-9.243 20.54-21.567 20.54h-598.745c-12.324 0-21.567-9.243-21.567-20.54s9.243-21.567 21.567-21.567zM1005.439 407.421h-598.745c-12.324 0-21.567-9.243-21.567-21.567s9.243-21.567 21.567-21.567h598.745c12.324 0 21.567 10.27 21.567 21.567s-9.243 21.567-21.567 21.567zM1005.439 65.427h-598.745c-12.324 0-21.567-10.27-21.567-21.567s9.243-21.567 21.567-21.567h598.745c12.324 0 21.567 9.243 21.567 21.567s-9.243 21.567-21.567 21.567zM302.967 911.681l-30.81-45.188c-10.27 7.189-23.621 11.297-36.972 11.297h-170.482c-35.945 0-64.701-28.756-64.701-63.674v-171.509c0-34.918 28.756-63.674 64.701-63.674h170.482c35.945 0 64.701 28.756 64.701 63.674v171.509c0 5.135-1.027 10.27-2.054 14.378l41.080 58.539c6.162 10.27 4.108 23.621-6.162 29.783-9.243 7.189-22.594 5.135-29.783-5.135zM256.751 642.605c0-11.297-9.243-21.567-21.567-21.567h-170.482c-12.324 0-21.567 10.27-21.567 21.567v171.509c0 11.297 9.243 21.567 21.567 21.567h170.482c5.135 0 8.216-2.054 12.324-4.108l-79.079-112.97-46.215 46.215c-8.216 8.216-21.567 8.216-30.81 0s-8.216-21.567 0-29.783l64.701-64.701c4.108-4.108 9.243-6.162 15.405-6.162 0 0 1.027 0 2.054 0 6.162 1.027 11.297 4.108 15.405 9.243l67.782 97.565v-128.375zM302.967 569.688l-30.81-45.188c-10.27 7.189-23.621 11.297-36.972 11.297h-170.482c-35.945 0-64.701-28.756-64.701-63.674v-171.509c0-35.945 28.756-64.701 64.701-64.701h170.482c35.945 0 64.701 28.756 64.701 64.701v171.509c0 5.135-1.027 9.243-2.054 14.378l41.080 58.539c6.162 9.243 4.108 22.594-6.162 29.783-9.243 7.189-22.594 4.108-29.783-5.135zM256.751 300.612c0-12.324-9.243-21.567-21.567-21.567h-170.482c-12.324 0-21.567 9.243-21.567 21.567v171.509c0 11.297 9.243 20.54 21.567 20.54h170.482c5.135 0 8.216-1.027 12.324-3.081l-79.079-112.97-46.215 46.215c-8.216 8.216-21.567 8.216-30.81 0s-8.216-22.594 0-30.81l64.701-63.674c4.108-4.108 9.243-6.162 15.405-6.162 0 0 1.027 0 2.054 0 6.162 0 11.297 4.108 15.405 9.243l67.782 96.538v-127.348z" />
<glyph unicode="&#xe818;" glyph-name="countdown" data-tags="countdown" d="M800.038 688.82l51.35 69.836c7.189 9.243 5.135 22.594-4.108 29.783s-22.594 5.135-29.783-4.108l-51.35-69.836c-55.458 37.999-119.132 62.647-187.942 72.917v90.376h20.54c12.324 0 21.567 10.27 21.567 21.567s-9.243 21.567-21.567 21.567h-170.482c-12.324 0-21.567-9.243-21.567-21.567s9.243-21.567 21.567-21.567h21.567v-90.376c-68.809-10.27-133.51-34.918-187.942-71.89l-52.377 68.809c-7.189 9.243-20.54 11.297-29.783 4.108s-11.297-20.54-4.108-29.783l51.35-69.836c-99.619-82.16-162.266-206.428-162.266-345.074 0-248.535 201.293-449.828 448.801-449.828s449.828 201.293 449.828 449.828c0 138.645-63.674 262.914-163.293 345.074zM491.935 877.789h43.134v-86.268c-7.189 0-14.378 1.027-21.567 1.027s-14.378-1.027-21.567-1.027v86.268zM513.502-62.948c-223.887 0-406.694 181.78-406.694 406.694s182.807 405.667 406.694 405.667 406.694-181.78 406.694-405.667-182.807-406.694-406.694-406.694zM513.502 707.306c-11.297 0-21.567-10.27-21.567-21.567v-341.993c0-12.324 10.27-21.567 21.567-21.567h341.993c12.324 0 21.567 9.243 21.567 21.567 0 200.266-163.293 363.56-363.56 363.56zM535.071 364.287v298.859c160.212-10.27 288.589-138.645 298.859-298.859h-298.859z" />
<glyph unicode="&#xe819;" glyph-name="counter" data-tags="counter" d="M1020.844 647.74l-128.375 128.375c-2.054 1.027-4.108 3.081-7.189 4.108-1.027 1.027-3.081 1.027-4.108 1.027-2.054 0-3.081 1.027-4.108 1.027s-3.081-1.027-4.108-1.027c-1.027-1.027-3.081-1.027-4.108-1.027-2.054-1.027-5.135-3.081-7.189-5.135l-127.348-127.348c-9.243-9.243-9.243-22.594 0-30.81s21.567-8.216 29.783 0l91.403 91.403v-654.203c0-11.297 10.27-21.567 21.567-21.567s21.567 10.27 21.567 21.567v654.203l91.403-91.403c5.135-4.108 10.27-6.162 15.405-6.162s11.297 2.054 15.405 6.162c8.216 8.216 8.216 21.567 0 30.81zM112.97 566.607c-8.216 3.081-18.486 0-23.621-8.216l-85.241-128.375c-7.189-10.27-4.108-22.594 5.135-29.783 10.27-6.162 23.621-4.108 29.783 6.162l46.215 69.836v-272.157c0-11.297 10.27-21.567 21.567-21.567s21.567 10.27 21.567 21.567v341.993c0 10.27-6.162 18.486-15.405 20.54zM321.453 567.634c-59.566 0-107.835-47.242-107.835-106.808 0-11.297 10.27-21.567 21.567-21.567s21.567 10.27 21.567 21.567c0 35.945 28.756 64.701 64.701 64.701s63.674-28.756 63.674-64.701v-12.324c0-14.378-5.135-28.756-14.378-40.053l-151.996-191.023c-5.135-6.162-6.162-15.405-3.081-22.594 4.108-7.189 11.297-12.324 19.513-12.324h171.509c11.297 0 21.567 10.27 21.567 21.567s-10.27 21.567-21.567 21.567h-126.321l124.267 156.104c15.405 18.486 23.621 42.107 23.621 66.755v12.324c0 59.566-48.269 106.808-106.808 106.808zM727.12 460.826c0 59.566-47.242 106.808-106.808 106.808s-106.808-47.242-106.808-106.808c0-11.297 9.243-21.567 21.567-21.567s21.567 10.27 21.567 21.567c0 35.945 28.756 64.701 63.674 64.701s64.701-28.756 64.701-64.701-28.756-63.674-64.701-63.674c-11.297 0-21.567-10.27-21.567-21.567s10.27-21.567 21.567-21.567c35.945 0 64.701-28.756 64.701-64.701s-28.756-63.674-64.701-63.674-63.674 28.756-63.674 63.674c0 12.324-10.27 21.567-21.567 21.567s-21.567-9.243-21.567-21.567c0-58.539 48.269-106.808 106.808-106.808s106.808 48.269 106.808 106.808c0 35.945-16.432 66.755-42.107 86.268 25.675 19.513 42.107 50.323 42.107 85.241z" />
<glyph unicode="&#xe81a;" glyph-name="countdown1" data-tags="countdown" d="M800.038 688.82l51.35 69.836c7.189 9.243 5.135 22.594-4.108 29.783s-22.594 5.135-29.783-4.108l-51.35-69.836c-55.458 37.999-119.132 62.647-187.942 72.917v90.376h20.54c12.324 0 21.567 10.27 21.567 21.567s-9.243 21.567-21.567 21.567h-170.482c-12.324 0-21.567-9.243-21.567-21.567s9.243-21.567 21.567-21.567h21.567v-90.376c-68.809-10.27-133.51-34.918-187.942-71.89l-52.377 68.809c-7.189 9.243-20.54 11.297-29.783 4.108s-11.297-20.54-4.108-29.783l51.35-69.836c-99.619-82.16-162.266-206.428-162.266-345.074 0-248.535 201.293-449.828 448.801-449.828s449.828 201.293 449.828 449.828c0 138.645-63.674 262.914-163.293 345.074zM491.935 877.789h43.134v-86.268c-7.189 0-14.378 1.027-21.567 1.027s-14.378-1.027-21.567-1.027v86.268zM513.502-62.948c-223.887 0-406.694 181.78-406.694 406.694s182.807 405.667 406.694 405.667 406.694-181.78 406.694-405.667-182.807-406.694-406.694-406.694zM513.502 707.306c-11.297 0-21.567-10.27-21.567-21.567v-341.993c0-12.324 10.27-21.567 21.567-21.567h341.993c12.324 0 21.567 9.243 21.567 21.567 0 200.266-163.293 363.56-363.56 363.56zM535.071 364.287v298.859c160.212-10.27 288.589-138.645 298.859-298.859h-298.859z" />
<glyph unicode="&#xe81b;" glyph-name="counter1" data-tags="counter" d="M1020.844 647.74l-128.375 128.375c-2.054 1.027-4.108 3.081-7.189 4.108-1.027 1.027-3.081 1.027-4.108 1.027-2.054 0-3.081 1.027-4.108 1.027s-3.081-1.027-4.108-1.027c-1.027-1.027-3.081-1.027-4.108-1.027-2.054-1.027-5.135-3.081-7.189-5.135l-127.348-127.348c-9.243-9.243-9.243-22.594 0-30.81s21.567-8.216 29.783 0l91.403 91.403v-654.203c0-11.297 10.27-21.567 21.567-21.567s21.567 10.27 21.567 21.567v654.203l91.403-91.403c5.135-4.108 10.27-6.162 15.405-6.162s11.297 2.054 15.405 6.162c8.216 8.216 8.216 21.567 0 30.81zM112.97 566.607c-8.216 3.081-18.486 0-23.621-8.216l-85.241-128.375c-7.189-10.27-4.108-22.594 5.135-29.783 10.27-6.162 23.621-4.108 29.783 6.162l46.215 69.836v-272.157c0-11.297 10.27-21.567 21.567-21.567s21.567 10.27 21.567 21.567v341.993c0 10.27-6.162 18.486-15.405 20.54zM321.453 567.634c-59.566 0-107.835-47.242-107.835-106.808 0-11.297 10.27-21.567 21.567-21.567s21.567 10.27 21.567 21.567c0 35.945 28.756 64.701 64.701 64.701s63.674-28.756 63.674-64.701v-12.324c0-14.378-5.135-28.756-14.378-40.053l-151.996-191.023c-5.135-6.162-6.162-15.405-3.081-22.594 4.108-7.189 11.297-12.324 19.513-12.324h171.509c11.297 0 21.567 10.27 21.567 21.567s-10.27 21.567-21.567 21.567h-126.321l124.267 156.104c15.405 18.486 23.621 42.107 23.621 66.755v12.324c0 59.566-48.269 106.808-106.808 106.808zM727.12 460.826c0 59.566-47.242 106.808-106.808 106.808s-106.808-47.242-106.808-106.808c0-11.297 9.243-21.567 21.567-21.567s21.567 10.27 21.567 21.567c0 35.945 28.756 64.701 63.674 64.701s64.701-28.756 64.701-64.701-28.756-63.674-64.701-63.674c-11.297 0-21.567-10.27-21.567-21.567s10.27-21.567 21.567-21.567c35.945 0 64.701-28.756 64.701-64.701s-28.756-63.674-64.701-63.674-63.674 28.756-63.674 63.674c0 12.324-10.27 21.567-21.567 21.567s-21.567-9.243-21.567-21.567c0-58.539 48.269-106.808 106.808-106.808s106.808 48.269 106.808 106.808c0 35.945-16.432 66.755-42.107 86.268 25.675 19.513 42.107 50.323 42.107 85.241z" />
<glyph unicode="&#xe822;" glyph-name="divider" data-tags="divider" d="M43.134 514.23h940.738c12.324 0 21.567 10.27 21.567 21.567s-9.243 21.567-21.567 21.567h-940.738c-12.324 0-21.567-9.243-21.567-21.567s9.243-21.567 21.567-21.567zM385.127 685.739h256.751c8.216 0 15.405 5.135 19.513 12.324s2.054 15.405-2.054 21.567l-128.375 171.509c-8.216 11.297-26.702 11.297-34.918 0l-128.375-171.509c-4.108-6.162-5.135-14.378-2.054-21.567 4.108-7.189 11.297-12.324 19.513-12.324zM513.502 842.871l85.241-113.997h-170.482l85.241 113.997zM641.879 129.103h-256.751c-8.216 0-15.405-4.108-19.513-11.297-3.081-7.189-2.054-16.432 2.054-22.594l128.375-171.509c4.108-5.135 11.297-8.216 17.459-8.216s13.351 3.081 17.459 8.216l128.375 171.509c4.108 6.162 5.135 15.405 2.054 22.594-4.108 7.189-11.297 11.297-19.513 11.297zM513.502-27.003l-85.241 113.997h170.482l-85.241-113.997zM983.872 300.612h-940.738c-12.324 0-21.567-9.243-21.567-21.567s9.243-21.567 21.567-21.567h940.738c12.324 0 21.567 10.27 21.567 21.567s-9.243 21.567-21.567 21.567z" />
<glyph unicode="&#xe823;" glyph-name="divider1" data-tags="divider" d="M43.134 514.23h940.738c12.324 0 21.567 10.27 21.567 21.567s-9.243 21.567-21.567 21.567h-940.738c-12.324 0-21.567-9.243-21.567-21.567s9.243-21.567 21.567-21.567zM385.127 685.739h256.751c8.216 0 15.405 5.135 19.513 12.324s2.054 15.405-2.054 21.567l-128.375 171.509c-8.216 11.297-26.702 11.297-34.918 0l-128.375-171.509c-4.108-6.162-5.135-14.378-2.054-21.567 4.108-7.189 11.297-12.324 19.513-12.324zM513.502 842.871l85.241-113.997h-170.482l85.241 113.997zM641.879 129.103h-256.751c-8.216 0-15.405-4.108-19.513-11.297-3.081-7.189-2.054-16.432 2.054-22.594l128.375-171.509c4.108-5.135 11.297-8.216 17.459-8.216s13.351 3.081 17.459 8.216l128.375 171.509c4.108 6.162 5.135 15.405 2.054 22.594-4.108 7.189-11.297 11.297-19.513 11.297zM513.502-27.003l-85.241 113.997h170.482l-85.241-113.997zM983.872 300.612h-940.738c-12.324 0-21.567-9.243-21.567-21.567s9.243-21.567 21.567-21.567h940.738c12.324 0 21.567 10.27 21.567 21.567s-9.243 21.567-21.567 21.567z" />
<glyph unicode="&#xe846;" glyph-name="number-field" data-tags="number-field" d="M963.332 728.873h-898.631c-35.945 0-64.701-28.756-64.701-64.701v-513.502c0-34.918 28.756-63.674 64.701-63.674h898.631c34.918 0 63.674 28.756 63.674 63.674v513.502c0 35.945-28.756 64.701-63.674 64.701zM983.872 150.67c0-11.297-9.243-21.567-20.54-21.567h-898.631c-12.324 0-21.567 10.27-21.567 21.567v513.502c0 12.324 9.243 21.567 21.567 21.567h898.631c11.297 0 20.54-9.243 20.54-21.567v-513.502zM241.346 599.471c-8.216 2.054-18.486-1.027-23.621-9.243l-85.241-128.375c-7.189-9.243-4.108-22.594 5.135-29.783 10.27-6.162 23.621-3.081 29.783 6.162l46.215 69.836v-272.157c0-11.297 10.27-20.54 21.567-20.54s21.567 9.243 21.567 20.54v343.020c0 9.243-6.162 17.459-15.405 20.54zM449.828 600.498c-59.566 0-107.835-48.269-107.835-107.835 0-11.297 10.27-20.54 21.567-20.54s21.567 9.243 21.567 20.54c0 35.945 28.756 64.701 64.701 64.701s63.674-28.756 63.674-64.701v-12.324c0-14.378-5.135-28.756-14.378-40.053l-151.996-191.023c-5.135-6.162-6.162-14.378-3.081-22.594 4.108-7.189 11.297-11.297 19.513-11.297h171.509c11.297 0 21.567 9.243 21.567 20.54s-10.27 21.567-21.567 21.567h-126.321l124.267 156.104c15.405 18.486 23.621 42.107 23.621 66.755v12.324c0 59.566-48.269 107.835-106.808 107.835zM855.496 492.663c0 59.566-47.242 107.835-106.808 107.835s-106.808-48.269-106.808-107.835c0-11.297 9.243-20.54 21.567-20.54s21.567 9.243 21.567 20.54c0 35.945 28.756 64.701 63.674 64.701s64.701-28.756 64.701-64.701-28.756-63.674-64.701-63.674c-11.297 0-21.567-9.243-21.567-21.567s10.27-21.567 21.567-21.567c35.945 0 64.701-28.756 64.701-63.674s-28.756-64.701-64.701-64.701-63.674 28.756-63.674 64.701c0 11.297-10.27 21.567-21.567 21.567s-21.567-10.27-21.567-21.567c0-59.566 48.269-106.808 106.808-106.808s106.808 47.242 106.808 106.808c0 34.918-16.432 65.728-42.107 85.241 25.675 19.513 42.107 50.323 42.107 85.241z" />
<glyph unicode="&#xe847;" glyph-name="number-field1" data-tags="number-field" d="M963.332 728.873h-898.631c-35.945 0-64.701-28.756-64.701-64.701v-513.502c0-34.918 28.756-63.674 64.701-63.674h898.631c34.918 0 63.674 28.756 63.674 63.674v513.502c0 35.945-28.756 64.701-63.674 64.701zM983.872 150.67c0-11.297-9.243-21.567-20.54-21.567h-898.631c-12.324 0-21.567 10.27-21.567 21.567v513.502c0 12.324 9.243 21.567 21.567 21.567h898.631c11.297 0 20.54-9.243 20.54-21.567v-513.502zM241.346 599.471c-8.216 2.054-18.486-1.027-23.621-9.243l-85.241-128.375c-7.189-9.243-4.108-22.594 5.135-29.783 10.27-6.162 23.621-3.081 29.783 6.162l46.215 69.836v-272.157c0-11.297 10.27-20.54 21.567-20.54s21.567 9.243 21.567 20.54v343.020c0 9.243-6.162 17.459-15.405 20.54zM449.828 600.498c-59.566 0-107.835-48.269-107.835-107.835 0-11.297 10.27-20.54 21.567-20.54s21.567 9.243 21.567 20.54c0 35.945 28.756 64.701 64.701 64.701s63.674-28.756 63.674-64.701v-12.324c0-14.378-5.135-28.756-14.378-40.053l-151.996-191.023c-5.135-6.162-6.162-14.378-3.081-22.594 4.108-7.189 11.297-11.297 19.513-11.297h171.509c11.297 0 21.567 9.243 21.567 20.54s-10.27 21.567-21.567 21.567h-126.321l124.267 156.104c15.405 18.486 23.621 42.107 23.621 66.755v12.324c0 59.566-48.269 107.835-106.808 107.835zM855.496 492.663c0 59.566-47.242 107.835-106.808 107.835s-106.808-48.269-106.808-107.835c0-11.297 9.243-20.54 21.567-20.54s21.567 9.243 21.567 20.54c0 35.945 28.756 64.701 63.674 64.701s64.701-28.756 64.701-64.701-28.756-63.674-64.701-63.674c-11.297 0-21.567-9.243-21.567-21.567s10.27-21.567 21.567-21.567c35.945 0 64.701-28.756 64.701-63.674s-28.756-64.701-64.701-64.701-63.674 28.756-63.674 64.701c0 11.297-10.27 21.567-21.567 21.567s-21.567-10.27-21.567-21.567c0-59.566 48.269-106.808 106.808-106.808s106.808 47.242 106.808 106.808c0 34.918-16.432 65.728-42.107 85.241 25.675 19.513 42.107 50.323 42.107 85.241z" />
<glyph unicode="&#xe850;" glyph-name="post-slider" data-tags="post-slider" d="M834.956 685.739h-641.879c-12.324 0-21.567-9.243-21.567-21.567v-513.502c0-11.297 9.243-21.567 21.567-21.567h641.879c11.297 0 20.54 10.27 20.54 21.567v513.502c0 12.324-9.243 21.567-20.54 21.567zM813.389 172.237h-599.772v470.368h599.772v-470.368zM278.319 215.371h171.509c11.297 0 20.54 9.243 20.54 20.54s-9.243 21.567-20.54 21.567h-171.509c-12.324 0-21.567-9.243-21.567-21.567 0-11.297 9.243-20.54 21.567-20.54zM278.319 300.612h470.368c12.324 0 21.567 9.243 21.567 21.567s-9.243 21.567-21.567 21.567h-470.368c-12.324 0-21.567-10.27-21.567-21.567s9.243-21.567 21.567-21.567zM278.319 385.854h470.368c12.324 0 21.567 10.27 21.567 21.567s-9.243 21.567-21.567 21.567h-470.368c-12.324 0-21.567-9.243-21.567-21.567s9.243-21.567 21.567-21.567zM122.213 508.068c-8.216 8.216-21.567 8.216-29.783 0l-86.268-85.241c-8.216-8.216-8.216-22.594 0-30.81l86.268-85.241c4.108-4.108 9.243-6.162 14.378-6.162s11.297 2.054 15.405 6.162c8.216 8.216 8.216 21.567 0 29.783l-70.863 70.863 70.863 70.863c8.216 8.216 8.216 21.567 0 29.783zM1020.844 422.826l-85.241 85.241c-8.216 8.216-22.594 8.216-30.81 0s-8.216-21.567 0-29.783l70.863-70.863-70.863-70.863c-8.216-8.216-8.216-21.567 0-29.783 4.108-4.108 10.27-6.162 15.405-6.162s11.297 2.054 15.405 6.162l85.241 85.241c8.216 8.216 8.216 22.594 0 30.81z" />
<glyph unicode="&#xe851;" glyph-name="post-slider1" data-tags="post-slider" d="M834.956 685.739h-641.879c-12.324 0-21.567-9.243-21.567-21.567v-513.502c0-11.297 9.243-21.567 21.567-21.567h641.879c11.297 0 20.54 10.27 20.54 21.567v513.502c0 12.324-9.243 21.567-20.54 21.567zM813.389 172.237h-599.772v470.368h599.772v-470.368zM278.319 215.371h171.509c11.297 0 20.54 9.243 20.54 20.54s-9.243 21.567-20.54 21.567h-171.509c-12.324 0-21.567-9.243-21.567-21.567 0-11.297 9.243-20.54 21.567-20.54zM278.319 300.612h470.368c12.324 0 21.567 9.243 21.567 21.567s-9.243 21.567-21.567 21.567h-470.368c-12.324 0-21.567-10.27-21.567-21.567s9.243-21.567 21.567-21.567zM278.319 385.854h470.368c12.324 0 21.567 10.27 21.567 21.567s-9.243 21.567-21.567 21.567h-470.368c-12.324 0-21.567-9.243-21.567-21.567s9.243-21.567 21.567-21.567zM122.213 508.068c-8.216 8.216-21.567 8.216-29.783 0l-86.268-85.241c-8.216-8.216-8.216-22.594 0-30.81l86.268-85.241c4.108-4.108 9.243-6.162 14.378-6.162s11.297 2.054 15.405 6.162c8.216 8.216 8.216 21.567 0 29.783l-70.863 70.863 70.863 70.863c8.216 8.216 8.216 21.567 0 29.783zM1020.844 422.826l-85.241 85.241c-8.216 8.216-22.594 8.216-30.81 0s-8.216-21.567 0-29.783l70.863-70.863-70.863-70.863c-8.216-8.216-8.216-21.567 0-29.783 4.108-4.108 10.27-6.162 15.405-6.162s11.297 2.054 15.405 6.162l85.241 85.241c8.216 8.216 8.216 22.594 0 30.81z" />
<glyph unicode="&#xe859;" glyph-name="price-table" data-tags="price-table" d="M983.872 728.873h-192.050v63.674c0 12.324-9.243 21.567-21.567 21.567h-513.502c-11.297 0-21.567-9.243-21.567-21.567v-63.674h-192.050c-12.324 0-21.567-10.27-21.567-21.567v-599.772c0-11.297 9.243-20.54 21.567-20.54h192.050v-64.701c0-12.324 10.27-21.567 21.567-21.567h513.502c12.324 0 21.567 9.243 21.567 21.567v64.701h192.050c12.324 0 21.567 9.243 21.567 20.54v599.772c0 11.297-9.243 21.567-21.567 21.567zM963.332 685.739v-85.241h-171.509v85.241h171.509zM278.319 770.98h470.368v-128.375h-470.368v128.375zM235.184 685.739v-85.241h-170.482v85.241h170.482zM64.701 129.103v428.261h170.482v-428.261h-170.482zM748.687 43.86h-470.368v556.638h470.368v-556.638zM791.822 129.103v428.261h171.509v-428.261h-171.509zM535.071 338.611v87.295c23.621-5.135 41.080-20.54 43.134-37.999 1.027-11.297 11.297-19.513 22.594-19.513 12.324 1.027 20.54 12.324 19.513 23.621-3.081 40.053-39.026 70.863-85.241 78.052v22.594c0 12.324-9.243 21.567-21.567 21.567s-21.567-9.243-21.567-21.567v-22.594c-48.269-8.216-85.241-43.134-85.241-84.214 0-40.053 27.729-66.755 85.241-81.133v-87.295c-23.621 6.162-41.080 20.54-43.134 37.999 0 11.297-12.324 20.54-22.594 19.513-11.297-1.027-20.54-11.297-19.513-23.621 3.081-39.026 39.026-69.836 85.241-77.025v-23.621c0-11.297 10.27-21.567 21.567-21.567s21.567 10.27 21.567 21.567v23.621c48.269 7.189 85.241 42.107 85.241 83.187 0 40.053-27.729 67.782-85.241 81.133zM449.828 385.854c0 18.486 17.459 33.891 42.107 40.053v-77.025c-28.756 8.216-42.107 20.54-42.107 36.972zM535.071 217.425v77.025c28.756-8.216 43.134-19.513 43.134-36.972s-18.486-33.891-43.134-40.053z" />
<glyph unicode="&#xe85a;" glyph-name="price-table1" data-tags="price-table" d="M983.872 728.873h-192.050v63.674c0 12.324-9.243 21.567-21.567 21.567h-513.502c-11.297 0-21.567-9.243-21.567-21.567v-63.674h-192.050c-12.324 0-21.567-10.27-21.567-21.567v-599.772c0-11.297 9.243-20.54 21.567-20.54h192.050v-64.701c0-12.324 10.27-21.567 21.567-21.567h513.502c12.324 0 21.567 9.243 21.567 21.567v64.701h192.050c12.324 0 21.567 9.243 21.567 20.54v599.772c0 11.297-9.243 21.567-21.567 21.567zM963.332 685.739v-85.241h-171.509v85.241h171.509zM278.319 770.98h470.368v-128.375h-470.368v128.375zM235.184 685.739v-85.241h-170.482v85.241h170.482zM64.701 129.103v428.261h170.482v-428.261h-170.482zM748.687 43.86h-470.368v556.638h470.368v-556.638zM791.822 129.103v428.261h171.509v-428.261h-171.509zM535.071 338.611v87.295c23.621-5.135 41.080-20.54 43.134-37.999 1.027-11.297 11.297-19.513 22.594-19.513 12.324 1.027 20.54 12.324 19.513 23.621-3.081 40.053-39.026 70.863-85.241 78.052v22.594c0 12.324-9.243 21.567-21.567 21.567s-21.567-9.243-21.567-21.567v-22.594c-48.269-8.216-85.241-43.134-85.241-84.214 0-40.053 27.729-66.755 85.241-81.133v-87.295c-23.621 6.162-41.080 20.54-43.134 37.999 0 11.297-12.324 20.54-22.594 19.513-11.297-1.027-20.54-11.297-19.513-23.621 3.081-39.026 39.026-69.836 85.241-77.025v-23.621c0-11.297 10.27-21.567 21.567-21.567s21.567 10.27 21.567 21.567v23.621c48.269 7.189 85.241 42.107 85.241 83.187 0 40.053-27.729 67.782-85.241 81.133zM449.828 385.854c0 18.486 17.459 33.891 42.107 40.053v-77.025c-28.756 8.216-42.107 20.54-42.107 36.972zM535.071 217.425v77.025c28.756-8.216 43.134-19.513 43.134-36.972s-18.486-33.891-43.134-40.053z" />
<glyph unicode="&#xe875;" glyph-name="slideshow" data-tags="slideshow" d="M813.389 685.739h-599.772c-11.297 0-20.54-9.243-20.54-21.567v-428.261c0-11.297 9.243-20.54 20.54-20.54h599.772c11.297 0 21.567 9.243 21.567 20.54v428.261c0 12.324-10.27 21.567-21.567 21.567zM791.822 257.478h-556.638v385.127h556.638v-385.127zM143.78 551.202c-8.216 8.216-22.594 8.216-30.81 0l-85.241-86.268c-8.216-8.216-8.216-21.567 0-29.783l85.241-85.241c4.108-4.108 10.27-6.162 15.405-6.162s11.297 2.054 15.405 6.162c8.216 8.216 8.216 21.567 0 29.783l-70.863 70.863 70.863 69.836c8.216 8.216 8.216 22.594 0 30.81zM999.277 464.934l-85.241 86.268c-8.216 8.216-22.594 8.216-30.81 0s-8.216-22.594 0-30.81l70.863-69.836-70.863-70.863c-8.216-8.216-8.216-21.567 0-29.783 4.108-4.108 10.27-6.162 15.405-6.162s11.297 2.054 15.405 6.162l85.241 85.241c8.216 8.216 8.216 21.567 0 29.783z" />
<glyph unicode="&#xe876;" glyph-name="social-icons" data-tags="social-icons" d="M951.008 865.465l-107.835 9.243c-48.269 4.108-97.565 4.108-145.834 0l-107.835-9.243c-43.134-4.108-75.998-39.026-75.998-82.16v-195.131c0-43.134 32.864-79.079 75.998-82.16l107.835-10.27c24.648-2.054 48.269-3.081 72.917-3.081s48.269 1.027 72.917 3.081l107.835 10.27c43.134 3.081 75.998 39.026 75.998 82.16v195.131c0 43.134-32.864 78.052-75.998 82.16zM983.872 588.174c0-20.54-15.405-37.999-35.945-40.053l-108.862-9.243c-45.188-4.108-92.43-4.108-137.618 0l-108.862 9.243c-20.54 2.054-35.945 19.513-35.945 40.053v195.131c0 20.54 15.405 37.999 35.945 40.053l108.862 9.243c22.594 2.054 46.215 3.081 68.809 3.081s46.215-1.027 68.809-3.081l108.862-9.243c20.54-2.054 35.945-19.513 35.945-40.053v-195.131zM717.877 789.466c-6.162 4.108-15.405 4.108-21.567 1.027-7.189-4.108-11.297-11.297-11.297-19.513v-170.482c0-8.216 4.108-15.405 11.297-19.513 3.081-1.027 6.162-2.054 10.27-2.054s8.216 1.027 11.297 3.081l128.375 86.268c6.162 3.081 9.243 10.27 9.243 17.459s-3.081 13.351-9.243 17.459l-128.375 86.268zM727.12 639.524v91.403l68.809-45.188-68.809-46.215zM455.99 323.206c1.027 2.054 2.054 5.135 2.054 8.216 3.081 8.216-1.027 17.459-8.216 22.594s-16.432 5.135-23.621 1.027c-5.135-3.081-23.621-11.297-37.999-15.405-39.026 30.81-85.241 32.864-131.456 7.189-34.918-20.54-46.215-56.485-47.242-85.241-70.863 10.27-115.024 48.269-140.699 80.106-5.135 5.135-11.297 8.216-18.486 7.189-7.189 0-13.351-4.108-16.432-10.27-15.405-24.648-19.513-52.377-12.324-80.106 1.027-5.135 2.054-9.243 4.108-13.351 0-1.027-1.027-1.027-1.027-1.027-7.189-4.108-12.324-11.297-12.324-19.513 0-32.864 14.378-58.539 32.864-75.998 0 0-1.027-1.027-1.027-1.027-5.135-6.162-7.189-15.405-3.081-23.621 11.297-24.648 29.783-43.134 53.404-55.458-22.594-7.189-47.242-10.27-70.863-7.189-10.27 1.027-19.513-5.135-22.594-15.405-3.081-9.243 1.027-20.54 10.27-24.648 49.296-27.729 100.646-42.107 149.942-41.080 51.35 0 100.646 14.378 144.807 44.161 77.025 51.35 125.294 141.726 121.186 223.887 12.324 9.243 28.756 24.648 40.053 42.107 5.135 8.216 4.108 19.513-2.054 26.702-3.081 3.081-6.162 5.135-9.243 6.162zM282.427 59.265c-32.864-21.567-94.484-49.296-174.59-30.81 21.567 7.189 41.080 18.486 57.512 31.837 6.162 6.162 8.216 15.405 5.135 23.621s-10.27 13.351-19.513 14.378c-17.459 0-32.864 5.135-45.188 13.351 6.162 2.054 11.297 5.135 16.432 9.243 7.189 5.135 9.243 14.378 7.189 22.594s-10.27 14.378-18.486 15.405c-7.189 0-30.81 10.27-45.188 31.837 5.135 0 11.297 0 16.432 1.027 8.216 2.054 15.405 8.216 16.432 17.459 2.054 9.243-2.054 17.459-10.27 21.567-7.189 5.135-20.54 18.486-25.675 37.999-1.027 6.162-2.054 12.324-2.054 18.486 36.972-33.891 91.403-66.755 170.482-70.863 6.162-1.027 13.351 3.081 17.459 8.216s6.162 12.324 4.108 18.486c-3.081 11.297-2.054 50.323 25.675 65.728 33.891 19.513 62.647 16.432 89.349-8.216 3.081-3.081 7.189-4.108 11.297-5.135-1.027-3.081-1.027-6.162 0-9.243 1.027-6.162 5.135-11.297 9.243-14.378-3.081-4.108-5.135-10.27-4.108-15.405 8.216-70.863-33.891-150.969-101.673-197.185zM406.694 877.789h-341.993c-35.945 0-64.701-28.756-64.701-63.674v-341.993c0-35.945 28.756-64.701 64.701-64.701h341.993c34.918 0 63.674 28.756 63.674 64.701v341.993c0 34.918-28.756 63.674-63.674 63.674zM428.261 472.123c0-12.324-10.27-21.567-21.567-21.567h-149.942v170.482h43.134c11.297 0 21.567 10.27 21.567 21.567s-10.27 21.567-21.567 21.567h-43.134c0 23.621 19.513 43.134 43.134 43.134h21.567c11.297 0 20.54 9.243 20.54 21.567s-9.243 20.54-20.54 20.54h-21.567c-47.242 0-86.268-37.999-86.268-85.241h-20.54c-12.324 0-21.567-9.243-21.567-21.567s9.243-21.567 21.567-21.567h20.54v-170.482h-148.915c-12.324 0-21.567 9.243-21.567 21.567v341.993c0 11.297 9.243 21.567 21.567 21.567h341.993c11.297 0 21.567-10.27 21.567-21.567v-341.993zM877.064 450.555h-213.617c-83.187 0-149.942-67.782-149.942-149.942v-213.617c0-83.187 66.755-149.942 149.942-149.942h213.617c83.187 0 149.942 66.755 149.942 149.942v213.617c0 82.16-66.755 149.942-149.942 149.942zM983.872 86.994c0-59.566-47.242-107.835-106.808-107.835h-213.617c-59.566 0-106.808 48.269-106.808 107.835v213.617c0 58.539 47.242 106.808 106.808 106.808h213.617c59.566 0 106.808-48.269 106.808-106.808v-213.617zM770.254 322.179c-70.863 0-128.375-57.512-128.375-128.375s57.512-128.375 128.375-128.375 128.375 57.512 128.375 128.375-57.512 128.375-128.375 128.375zM770.254 107.536c-47.242 0-85.241 39.026-85.241 86.268s37.999 85.241 85.241 85.241 85.241-37.999 85.241-85.241-37.999-86.268-85.241-86.268z" />
<glyph unicode="&#xe877;" glyph-name="spacer" data-tags="spacer" d="M43.134 728.873h940.738c12.324 0 21.567 9.243 21.567 20.54s-9.243 21.567-21.567 21.567h-940.738c-12.324 0-21.567-9.243-21.567-21.567s9.243-20.54 21.567-20.54zM641.879 472.123c8.216 0 15.405 4.108 19.513 11.297s2.054 16.432-2.054 22.594l-128.375 171.509c-8.216 10.27-26.702 10.27-34.918 0l-128.375-171.509c-4.108-6.162-5.135-15.405-2.054-22.594 4.108-7.189 11.297-11.297 19.513-11.297h106.808v-128.375h-106.808c-8.216 0-15.405-5.135-19.513-12.324-3.081-7.189-2.054-15.405 2.054-22.594l128.375-170.482c4.108-6.162 11.297-9.243 17.459-9.243s13.351 3.081 17.459 9.243l128.375 170.482c4.108 7.189 5.135 15.405 2.054 22.594-4.108 7.189-11.297 12.324-19.513 12.324h-106.808v128.375h106.808zM513.502 186.615l-85.241 113.997h170.482l-85.241-113.997zM513.502 628.227l85.241-113.997h-170.482l85.241 113.997zM983.872 86.994h-940.738c-12.324 0-21.567-10.27-21.567-21.567s9.243-21.567 21.567-21.567h940.738c12.324 0 21.567 9.243 21.567 21.567s-9.243 21.567-21.567 21.567z" />
<glyph unicode="&#xe878;" glyph-name="slideshow1" data-tags="slideshow" d="M813.389 685.739h-599.772c-11.297 0-20.54-9.243-20.54-21.567v-428.261c0-11.297 9.243-20.54 20.54-20.54h599.772c11.297 0 21.567 9.243 21.567 20.54v428.261c0 12.324-10.27 21.567-21.567 21.567zM791.822 257.478h-556.638v385.127h556.638v-385.127zM143.78 551.202c-8.216 8.216-22.594 8.216-30.81 0l-85.241-86.268c-8.216-8.216-8.216-21.567 0-29.783l85.241-85.241c4.108-4.108 10.27-6.162 15.405-6.162s11.297 2.054 15.405 6.162c8.216 8.216 8.216 21.567 0 29.783l-70.863 70.863 70.863 69.836c8.216 8.216 8.216 22.594 0 30.81zM999.277 464.934l-85.241 86.268c-8.216 8.216-22.594 8.216-30.81 0s-8.216-22.594 0-30.81l70.863-69.836-70.863-70.863c-8.216-8.216-8.216-21.567 0-29.783 4.108-4.108 10.27-6.162 15.405-6.162s11.297 2.054 15.405 6.162l85.241 85.241c8.216 8.216 8.216 21.567 0 29.783z" />
<glyph unicode="&#xe879;" glyph-name="tabs" data-tags="tabs" d="M1014.682 637.47l-43.134 113.997c-9.243 24.648-32.864 41.080-59.566 41.080h-196.158c-21.567 0-41.080-10.27-52.377-26.702-12.324 16.432-30.81 26.702-52.377 26.702h-195.131c-21.567 0-40.053-10.27-52.377-26.702-11.297 16.432-30.81 26.702-52.377 26.702h-196.158c-26.702 0-50.323-16.432-59.566-41.080l-46.215-123.24c-6.162-16.432-9.243-32.864-9.243-50.323v-490.908c0-35.945 28.756-64.701 64.701-64.701h898.631c34.918 0 63.674 28.756 63.674 64.701v513.502c0 13.351-5.135 26.702-12.324 36.972zM715.823 749.413h196.158c9.243 0 16.432-5.135 20.54-13.351l26.702-71.89h-258.805l-14.378 43.134 9.243 27.729c3.081 9.243 11.297 14.378 20.54 14.378zM415.937 749.413h195.131c9.243 0 17.459-5.135 20.54-14.378l23.621-70.863h-254.697l-14.378 43.134 9.243 27.729c3.081 9.243 11.297 14.378 20.54 14.378zM983.872 86.994c0-12.324-9.243-21.567-20.54-21.567h-898.631c-12.324 0-21.567 9.243-21.567 21.567v490.908c0 12.324 2.054 23.621 6.162 34.918l46.215 123.24c3.081 8.216 10.27 13.351 19.513 13.351h196.158c9.243 0 17.459-5.135 20.54-14.378l32.864-98.592c3.081-9.243 11.297-15.405 20.54-15.405h578.205c5.135 0 10.27-2.054 13.351-5.135l1.027-3.081c1.027-2.054 3.081-4.108 5.135-6.162 1.027-2.054 1.027-4.108 1.027-6.162v-513.502z" />
<glyph unicode="&#xe87a;" glyph-name="social-icons1" data-tags="social-icons" d="M951.008 865.465l-107.835 9.243c-48.269 4.108-97.565 4.108-145.834 0l-107.835-9.243c-43.134-4.108-75.998-39.026-75.998-82.16v-195.131c0-43.134 32.864-79.079 75.998-82.16l107.835-10.27c24.648-2.054 48.269-3.081 72.917-3.081s48.269 1.027 72.917 3.081l107.835 10.27c43.134 3.081 75.998 39.026 75.998 82.16v195.131c0 43.134-32.864 78.052-75.998 82.16zM983.872 588.174c0-20.54-15.405-37.999-35.945-40.053l-108.862-9.243c-45.188-4.108-92.43-4.108-137.618 0l-108.862 9.243c-20.54 2.054-35.945 19.513-35.945 40.053v195.131c0 20.54 15.405 37.999 35.945 40.053l108.862 9.243c22.594 2.054 46.215 3.081 68.809 3.081s46.215-1.027 68.809-3.081l108.862-9.243c20.54-2.054 35.945-19.513 35.945-40.053v-195.131zM717.877 789.466c-6.162 4.108-15.405 4.108-21.567 1.027-7.189-4.108-11.297-11.297-11.297-19.513v-170.482c0-8.216 4.108-15.405 11.297-19.513 3.081-1.027 6.162-2.054 10.27-2.054s8.216 1.027 11.297 3.081l128.375 86.268c6.162 3.081 9.243 10.27 9.243 17.459s-3.081 13.351-9.243 17.459l-128.375 86.268zM727.12 639.524v91.403l68.809-45.188-68.809-46.215zM455.99 323.206c1.027 2.054 2.054 5.135 2.054 8.216 3.081 8.216-1.027 17.459-8.216 22.594s-16.432 5.135-23.621 1.027c-5.135-3.081-23.621-11.297-37.999-15.405-39.026 30.81-85.241 32.864-131.456 7.189-34.918-20.54-46.215-56.485-47.242-85.241-70.863 10.27-115.024 48.269-140.699 80.106-5.135 5.135-11.297 8.216-18.486 7.189-7.189 0-13.351-4.108-16.432-10.27-15.405-24.648-19.513-52.377-12.324-80.106 1.027-5.135 2.054-9.243 4.108-13.351 0-1.027-1.027-1.027-1.027-1.027-7.189-4.108-12.324-11.297-12.324-19.513 0-32.864 14.378-58.539 32.864-75.998 0 0-1.027-1.027-1.027-1.027-5.135-6.162-7.189-15.405-3.081-23.621 11.297-24.648 29.783-43.134 53.404-55.458-22.594-7.189-47.242-10.27-70.863-7.189-10.27 1.027-19.513-5.135-22.594-15.405-3.081-9.243 1.027-20.54 10.27-24.648 49.296-27.729 100.646-42.107 149.942-41.080 51.35 0 100.646 14.378 144.807 44.161 77.025 51.35 125.294 141.726 121.186 223.887 12.324 9.243 28.756 24.648 40.053 42.107 5.135 8.216 4.108 19.513-2.054 26.702-3.081 3.081-6.162 5.135-9.243 6.162zM282.427 59.265c-32.864-21.567-94.484-49.296-174.59-30.81 21.567 7.189 41.080 18.486 57.512 31.837 6.162 6.162 8.216 15.405 5.135 23.621s-10.27 13.351-19.513 14.378c-17.459 0-32.864 5.135-45.188 13.351 6.162 2.054 11.297 5.135 16.432 9.243 7.189 5.135 9.243 14.378 7.189 22.594s-10.27 14.378-18.486 15.405c-7.189 0-30.81 10.27-45.188 31.837 5.135 0 11.297 0 16.432 1.027 8.216 2.054 15.405 8.216 16.432 17.459 2.054 9.243-2.054 17.459-10.27 21.567-7.189 5.135-20.54 18.486-25.675 37.999-1.027 6.162-2.054 12.324-2.054 18.486 36.972-33.891 91.403-66.755 170.482-70.863 6.162-1.027 13.351 3.081 17.459 8.216s6.162 12.324 4.108 18.486c-3.081 11.297-2.054 50.323 25.675 65.728 33.891 19.513 62.647 16.432 89.349-8.216 3.081-3.081 7.189-4.108 11.297-5.135-1.027-3.081-1.027-6.162 0-9.243 1.027-6.162 5.135-11.297 9.243-14.378-3.081-4.108-5.135-10.27-4.108-15.405 8.216-70.863-33.891-150.969-101.673-197.185zM406.694 877.789h-341.993c-35.945 0-64.701-28.756-64.701-63.674v-341.993c0-35.945 28.756-64.701 64.701-64.701h341.993c34.918 0 63.674 28.756 63.674 64.701v341.993c0 34.918-28.756 63.674-63.674 63.674zM428.261 472.123c0-12.324-10.27-21.567-21.567-21.567h-149.942v170.482h43.134c11.297 0 21.567 10.27 21.567 21.567s-10.27 21.567-21.567 21.567h-43.134c0 23.621 19.513 43.134 43.134 43.134h21.567c11.297 0 20.54 9.243 20.54 21.567s-9.243 20.54-20.54 20.54h-21.567c-47.242 0-86.268-37.999-86.268-85.241h-20.54c-12.324 0-21.567-9.243-21.567-21.567s9.243-21.567 21.567-21.567h20.54v-170.482h-148.915c-12.324 0-21.567 9.243-21.567 21.567v341.993c0 11.297 9.243 21.567 21.567 21.567h341.993c11.297 0 21.567-10.27 21.567-21.567v-341.993zM877.064 450.555h-213.617c-83.187 0-149.942-67.782-149.942-149.942v-213.617c0-83.187 66.755-149.942 149.942-149.942h213.617c83.187 0 149.942 66.755 149.942 149.942v213.617c0 82.16-66.755 149.942-149.942 149.942zM983.872 86.994c0-59.566-47.242-107.835-106.808-107.835h-213.617c-59.566 0-106.808 48.269-106.808 107.835v213.617c0 58.539 47.242 106.808 106.808 106.808h213.617c59.566 0 106.808-48.269 106.808-106.808v-213.617zM770.254 322.179c-70.863 0-128.375-57.512-128.375-128.375s57.512-128.375 128.375-128.375 128.375 57.512 128.375 128.375-57.512 128.375-128.375 128.375zM770.254 107.536c-47.242 0-85.241 39.026-85.241 86.268s37.999 85.241 85.241 85.241 85.241-37.999 85.241-85.241-37.999-86.268-85.241-86.268z" />
<glyph unicode="&#xe87b;" glyph-name="spacer1" data-tags="spacer" d="M43.134 728.873h940.738c12.324 0 21.567 9.243 21.567 20.54s-9.243 21.567-21.567 21.567h-940.738c-12.324 0-21.567-9.243-21.567-21.567s9.243-20.54 21.567-20.54zM641.879 472.123c8.216 0 15.405 4.108 19.513 11.297s2.054 16.432-2.054 22.594l-128.375 171.509c-8.216 10.27-26.702 10.27-34.918 0l-128.375-171.509c-4.108-6.162-5.135-15.405-2.054-22.594 4.108-7.189 11.297-11.297 19.513-11.297h106.808v-128.375h-106.808c-8.216 0-15.405-5.135-19.513-12.324-3.081-7.189-2.054-15.405 2.054-22.594l128.375-170.482c4.108-6.162 11.297-9.243 17.459-9.243s13.351 3.081 17.459 9.243l128.375 170.482c4.108 7.189 5.135 15.405 2.054 22.594-4.108 7.189-11.297 12.324-19.513 12.324h-106.808v128.375h106.808zM513.502 186.615l-85.241 113.997h170.482l-85.241-113.997zM513.502 628.227l85.241-113.997h-170.482l85.241 113.997zM983.872 86.994h-940.738c-12.324 0-21.567-10.27-21.567-21.567s9.243-21.567 21.567-21.567h940.738c12.324 0 21.567 9.243 21.567 21.567s-9.243 21.567-21.567 21.567z" />
<glyph unicode="&#xe87c;" glyph-name="tabs1" data-tags="tabs" d="M1014.682 637.47l-43.134 113.997c-9.243 24.648-32.864 41.080-59.566 41.080h-196.158c-21.567 0-41.080-10.27-52.377-26.702-12.324 16.432-30.81 26.702-52.377 26.702h-195.131c-21.567 0-40.053-10.27-52.377-26.702-11.297 16.432-30.81 26.702-52.377 26.702h-196.158c-26.702 0-50.323-16.432-59.566-41.080l-46.215-123.24c-6.162-16.432-9.243-32.864-9.243-50.323v-490.908c0-35.945 28.756-64.701 64.701-64.701h898.631c34.918 0 63.674 28.756 63.674 64.701v513.502c0 13.351-5.135 26.702-12.324 36.972zM715.823 749.413h196.158c9.243 0 16.432-5.135 20.54-13.351l26.702-71.89h-258.805l-14.378 43.134 9.243 27.729c3.081 9.243 11.297 14.378 20.54 14.378zM415.937 749.413h195.131c9.243 0 17.459-5.135 20.54-14.378l23.621-70.863h-254.697l-14.378 43.134 9.243 27.729c3.081 9.243 11.297 14.378 20.54 14.378zM983.872 86.994c0-12.324-9.243-21.567-20.54-21.567h-898.631c-12.324 0-21.567 9.243-21.567 21.567v490.908c0 12.324 2.054 23.621 6.162 34.918l46.215 123.24c3.081 8.216 10.27 13.351 19.513 13.351h196.158c9.243 0 17.459-5.135 20.54-14.378l32.864-98.592c3.081-9.243 11.297-15.405 20.54-15.405h578.205c5.135 0 10.27-2.054 13.351-5.135l1.027-3.081c1.027-2.054 3.081-4.108 5.135-6.162 1.027-2.054 1.027-4.108 1.027-6.162v-513.502z" />
<glyph unicode="&#xe882;" glyph-name="text-field" data-tags="text-field" d="M963.332 728.873h-898.631c-35.945 0-64.701-28.756-64.701-64.701v-513.502c0-34.918 28.756-63.674 64.701-63.674h898.631c34.918 0 63.674 28.756 63.674 63.674v513.502c0 35.945-28.756 64.701-63.674 64.701zM983.872 150.67c0-11.297-9.243-21.567-20.54-21.567h-898.631c-12.324 0-21.567 10.27-21.567 21.567v513.502c0 12.324 9.243 21.567 21.567 21.567h898.631c11.297 0 20.54-9.243 20.54-21.567v-513.502zM235.184 600.498c12.324 0 21.567 9.243 21.567 20.54s-9.243 21.567-21.567 21.567h-85.241c-12.324 0-21.567-9.243-21.567-21.567s9.243-20.54 21.567-20.54h21.567v-385.127h-21.567c-12.324 0-21.567-10.27-21.567-21.567s9.243-21.567 21.567-21.567h85.241c12.324 0 21.567 9.243 21.567 21.567s-9.243 21.567-21.567 21.567h-21.567v385.127h21.567z" />
<glyph unicode="&#xe883;" glyph-name="text-field1" data-tags="text-field" d="M963.332 728.873h-898.631c-35.945 0-64.701-28.756-64.701-64.701v-513.502c0-34.918 28.756-63.674 64.701-63.674h898.631c34.918 0 63.674 28.756 63.674 63.674v513.502c0 35.945-28.756 64.701-63.674 64.701zM983.872 150.67c0-11.297-9.243-21.567-20.54-21.567h-898.631c-12.324 0-21.567 10.27-21.567 21.567v513.502c0 12.324 9.243 21.567 21.567 21.567h898.631c11.297 0 20.54-9.243 20.54-21.567v-513.502zM235.184 600.498c12.324 0 21.567 9.243 21.567 20.54s-9.243 21.567-21.567 21.567h-85.241c-12.324 0-21.567-9.243-21.567-21.567s9.243-20.54 21.567-20.54h21.567v-385.127h-21.567c-12.324 0-21.567-10.27-21.567-21.567s9.243-21.567 21.567-21.567h85.241c12.324 0 21.567 9.243 21.567 21.567s-9.243 21.567-21.567 21.567h-21.567v385.127h21.567z" />
<glyph unicode="&#xe887;" glyph-name="toggle" data-tags="toggle" d="M235.184 899.357h-170.482c-35.945 0-64.701-28.756-64.701-63.674v-171.509c0-34.918 28.756-63.674 64.701-63.674h170.482c35.945 0 64.701 28.756 64.701 63.674v171.509c0 34.918-28.756 63.674-64.701 63.674zM256.751 664.172c0-11.297-9.243-21.567-21.567-21.567h-170.482c-12.324 0-21.567 10.27-21.567 21.567v171.509c0 11.297 9.243 21.567 21.567 21.567h170.482c12.324 0 21.567-10.27 21.567-21.567v-171.509zM193.077 770.98h-21.567v21.567c0 12.324-10.27 21.567-21.567 21.567s-21.567-9.243-21.567-21.567v-21.567h-21.567c-11.297 0-21.567-9.243-21.567-21.567s10.27-20.54 21.567-20.54h21.567v-21.567c0-12.324 9.243-21.567 21.567-21.567s21.567 9.243 21.567 21.567v21.567h21.567c11.297 0 20.54 9.243 20.54 20.54s-9.243 21.567-20.54 21.567zM235.184 557.364h-170.482c-35.945 0-64.701-28.756-64.701-64.701v-170.482c0-35.945 28.756-64.701 64.701-64.701h170.482c35.945 0 64.701 28.756 64.701 64.701v170.482c0 35.945-28.756 64.701-64.701 64.701zM256.751 322.179c0-12.324-9.243-21.567-21.567-21.567h-170.482c-12.324 0-21.567 9.243-21.567 21.567v170.482c0 12.324 9.243 21.567 21.567 21.567h170.482c12.324 0 21.567-9.243 21.567-21.567v-170.482zM193.077 428.988h-21.567v21.567c0 11.297-10.27 21.567-21.567 21.567s-21.567-10.27-21.567-21.567v-21.567h-21.567c-11.297 0-21.567-9.243-21.567-21.567s10.27-21.567 21.567-21.567h21.567v-21.567c0-11.297 9.243-20.54 21.567-20.54s21.567 9.243 21.567 20.54v21.567h21.567c11.297 0 20.54 10.27 20.54 21.567s-9.243 21.567-20.54 21.567zM235.184 215.371h-170.482c-35.945 0-64.701-28.756-64.701-64.701v-171.509c0-34.918 28.756-63.674 64.701-63.674h170.482c35.945 0 64.701 28.756 64.701 63.674v171.509c0 35.945-28.756 64.701-64.701 64.701zM256.751-20.841c0-11.297-9.243-21.567-21.567-21.567h-170.482c-12.324 0-21.567 10.27-21.567 21.567v171.509c0 12.324 9.243 21.567 21.567 21.567h170.482c12.324 0 21.567-9.243 21.567-21.567v-171.509zM193.077 86.994h-21.567v20.54c0 12.324-10.27 21.567-21.567 21.567s-21.567-9.243-21.567-21.567v-20.54h-21.567c-11.297 0-21.567-10.27-21.567-21.567s10.27-21.567 21.567-21.567h21.567v-21.567c0-12.324 9.243-21.567 21.567-21.567s21.567 9.243 21.567 21.567v21.567h21.567c11.297 0 20.54 9.243 20.54 21.567s-9.243 21.567-20.54 21.567zM406.694 728.873h598.745c12.324 0 21.567 9.243 21.567 20.54s-9.243 21.567-21.567 21.567h-598.745c-12.324 0-21.567-9.243-21.567-21.567s9.243-20.54 21.567-20.54zM1005.439 428.988h-598.745c-12.324 0-21.567-9.243-21.567-21.567s9.243-21.567 21.567-21.567h598.745c12.324 0 21.567 10.27 21.567 21.567s-9.243 21.567-21.567 21.567zM1005.439 86.994h-598.745c-12.324 0-21.567-10.27-21.567-21.567s9.243-21.567 21.567-21.567h598.745c12.324 0 21.567 9.243 21.567 21.567s-9.243 21.567-21.567 21.567z" />
<glyph unicode="&#xe888;" glyph-name="toggle1" data-tags="toggle" d="M235.184 899.357h-170.482c-35.945 0-64.701-28.756-64.701-63.674v-171.509c0-34.918 28.756-63.674 64.701-63.674h170.482c35.945 0 64.701 28.756 64.701 63.674v171.509c0 34.918-28.756 63.674-64.701 63.674zM256.751 664.172c0-11.297-9.243-21.567-21.567-21.567h-170.482c-12.324 0-21.567 10.27-21.567 21.567v171.509c0 11.297 9.243 21.567 21.567 21.567h170.482c12.324 0 21.567-10.27 21.567-21.567v-171.509zM193.077 770.98h-21.567v21.567c0 12.324-10.27 21.567-21.567 21.567s-21.567-9.243-21.567-21.567v-21.567h-21.567c-11.297 0-21.567-9.243-21.567-21.567s10.27-20.54 21.567-20.54h21.567v-21.567c0-12.324 9.243-21.567 21.567-21.567s21.567 9.243 21.567 21.567v21.567h21.567c11.297 0 20.54 9.243 20.54 20.54s-9.243 21.567-20.54 21.567zM235.184 557.364h-170.482c-35.945 0-64.701-28.756-64.701-64.701v-170.482c0-35.945 28.756-64.701 64.701-64.701h170.482c35.945 0 64.701 28.756 64.701 64.701v170.482c0 35.945-28.756 64.701-64.701 64.701zM256.751 322.179c0-12.324-9.243-21.567-21.567-21.567h-170.482c-12.324 0-21.567 9.243-21.567 21.567v170.482c0 12.324 9.243 21.567 21.567 21.567h170.482c12.324 0 21.567-9.243 21.567-21.567v-170.482zM193.077 428.988h-21.567v21.567c0 11.297-10.27 21.567-21.567 21.567s-21.567-10.27-21.567-21.567v-21.567h-21.567c-11.297 0-21.567-9.243-21.567-21.567s10.27-21.567 21.567-21.567h21.567v-21.567c0-11.297 9.243-20.54 21.567-20.54s21.567 9.243 21.567 20.54v21.567h21.567c11.297 0 20.54 10.27 20.54 21.567s-9.243 21.567-20.54 21.567zM235.184 215.371h-170.482c-35.945 0-64.701-28.756-64.701-64.701v-171.509c0-34.918 28.756-63.674 64.701-63.674h170.482c35.945 0 64.701 28.756 64.701 63.674v171.509c0 35.945-28.756 64.701-64.701 64.701zM256.751-20.841c0-11.297-9.243-21.567-21.567-21.567h-170.482c-12.324 0-21.567 10.27-21.567 21.567v171.509c0 12.324 9.243 21.567 21.567 21.567h170.482c12.324 0 21.567-9.243 21.567-21.567v-171.509zM193.077 86.994h-21.567v20.54c0 12.324-10.27 21.567-21.567 21.567s-21.567-9.243-21.567-21.567v-20.54h-21.567c-11.297 0-21.567-10.27-21.567-21.567s10.27-21.567 21.567-21.567h21.567v-21.567c0-12.324 9.243-21.567 21.567-21.567s21.567 9.243 21.567 21.567v21.567h21.567c11.297 0 20.54 9.243 20.54 21.567s-9.243 21.567-20.54 21.567zM406.694 728.873h598.745c12.324 0 21.567 9.243 21.567 20.54s-9.243 21.567-21.567 21.567h-598.745c-12.324 0-21.567-9.243-21.567-21.567s9.243-20.54 21.567-20.54zM1005.439 428.988h-598.745c-12.324 0-21.567-9.243-21.567-21.567s9.243-21.567 21.567-21.567h598.745c12.324 0 21.567 10.27 21.567 21.567s-9.243 21.567-21.567 21.567zM1005.439 86.994h-598.745c-12.324 0-21.567-10.27-21.567-21.567s9.243-21.567 21.567-21.567h598.745c12.324 0 21.567 9.243 21.567 21.567s-9.243 21.567-21.567 21.567z" />
<glyph unicode="&#xe893;" glyph-name="bullet-list" data-tags="bullet-list" d="M1005.439 728.873h-727.12c-12.324 0-21.567 9.243-21.567 20.54s9.243 21.567 21.567 21.567h727.12c12.324 0 21.567-9.243 21.567-21.567s-9.243-20.54-21.567-20.54zM1005.439 385.854h-727.12c-12.324 0-21.567 10.27-21.567 21.567s9.243 21.567 21.567 21.567h727.12c12.324 0 21.567-9.243 21.567-21.567s-9.243-21.567-21.567-21.567zM1005.439 43.86h-727.12c-12.324 0-21.567 9.243-21.567 21.567s9.243 21.567 21.567 21.567h727.12c12.324 0 21.567-10.27 21.567-21.567s-9.243-21.567-21.567-21.567zM106.808 300.612c-58.539 0-106.808 48.269-106.808 106.808s48.269 106.808 106.808 106.808 106.808-48.269 106.808-106.808-47.242-106.808-106.808-106.808zM106.808 472.123c-34.918 0-63.674-28.756-63.674-64.701s28.756-63.674 63.674-63.674 64.701 28.756 64.701 63.674-28.756 64.701-64.701 64.701zM106.808-42.408c-58.539 0-106.808 48.269-106.808 107.835s48.269 106.808 106.808 106.808 106.808-48.269 106.808-106.808-47.242-107.835-106.808-107.835zM106.808 129.103c-34.918 0-63.674-28.756-63.674-63.674s28.756-64.701 63.674-64.701 64.701 28.756 64.701 64.701-28.756 63.674-64.701 63.674zM106.808 642.605c-58.539 0-106.808 48.269-106.808 106.808s48.269 107.835 106.808 107.835 106.808-48.269 106.808-107.835-47.242-106.808-106.808-106.808zM106.808 814.115c-34.918 0-63.674-28.756-63.674-64.701s28.756-63.674 63.674-63.674 64.701 28.756 64.701 63.674-28.756 64.701-64.701 64.701z" />
<glyph unicode="&#xe894;" glyph-name="coding" data-tags="coding" d="M321.453-84.515c-3.081 0-6.162 0-8.216 1.027-11.297 5.135-16.432 17.459-12.324 27.729l385.127 941.765c5.135 11.297 17.459 16.432 27.729 12.324 11.297-5.135 16.432-17.459 12.324-28.756l-385.127-940.738c-3.081-8.216-11.297-13.351-19.513-13.351zM748.687 86.994c-5.135 0-9.243 1.027-13.351 5.135-9.243 7.189-10.27 20.54-3.081 29.783l245.454 285.508-245.454 285.508c-7.189 9.243-6.162 22.594 3.081 30.81 8.216 7.189 22.594 6.162 29.783-3.081l256.751-298.859c7.189-8.216 7.189-20.54 0-27.729l-256.751-299.886c-4.108-5.135-10.27-7.189-16.432-7.189zM278.319 86.994c-6.162 0-12.324 2.054-16.432 7.189l-256.751 299.886c-7.189 7.189-7.189 19.513 0 27.729l256.751 298.859c8.216 9.243 21.567 10.27 29.783 3.081 9.243-8.216 10.27-21.567 3.081-30.81l-245.454-285.508 245.454-285.508c7.189-9.243 6.162-22.594-3.081-29.783-3.081-4.108-8.216-5.135-13.351-5.135z" />
<glyph unicode="&#xe895;" glyph-name="favorite" data-tags="favorite" d="M513.502-106.082c-283.454 0-513.502 230.049-513.502 513.502s230.049 513.502 513.502 513.502 513.502-230.049 513.502-513.502-230.049-513.502-513.502-513.502zM513.502 877.789c-259.832 0-470.368-210.536-470.368-470.368s210.536-470.368 470.368-470.368 470.368 210.536 470.368 470.368-210.536 470.368-470.368 470.368zM706.58 107.536c-4.108 0-8.216 2.054-12.324 4.108l-180.753 120.159-180.753-120.159c-7.189-5.135-17.459-5.135-24.648 0s-10.27 14.378-8.216 23.621l60.593 220.806-180.753 141.726c-7.189 5.135-10.27 15.405-7.189 23.621s11.297 14.378 20.54 14.378h220.806l80.106 200.266c6.162 16.432 32.864 16.432 39.026 0l80.106-200.266h221.833c8.216 0 16.432-6.162 19.513-14.378s0-18.486-7.189-23.621l-180.753-141.726 60.593-220.806c2.054-9.243-1.027-18.486-8.216-23.621-4.108-2.054-8.216-4.108-12.324-4.108zM513.502 279.045c4.108 0 8.216-1.027 12.324-3.081l144.807-97.565-49.296 180.753c-2.054 8.216 1.027 17.459 7.189 22.594l143.78 110.916h-173.563c-8.216 0-16.432 6.162-19.513 13.351l-65.728 164.32-65.728-163.293c-3.081-8.216-11.297-14.378-19.513-14.378h-173.563l143.78-110.916c6.162-5.135 9.243-14.378 7.189-22.594l-49.296-180.753 144.807 97.565c4.108 2.054 8.216 3.081 12.324 3.081z" />
<glyph unicode="&#xe896;" glyph-name="bullet-list1" data-tags="bullet-list" d="M1005.439 728.873h-727.12c-12.324 0-21.567 9.243-21.567 20.54s9.243 21.567 21.567 21.567h727.12c12.324 0 21.567-9.243 21.567-21.567s-9.243-20.54-21.567-20.54zM1005.439 385.854h-727.12c-12.324 0-21.567 10.27-21.567 21.567s9.243 21.567 21.567 21.567h727.12c12.324 0 21.567-9.243 21.567-21.567s-9.243-21.567-21.567-21.567zM1005.439 43.86h-727.12c-12.324 0-21.567 9.243-21.567 21.567s9.243 21.567 21.567 21.567h727.12c12.324 0 21.567-10.27 21.567-21.567s-9.243-21.567-21.567-21.567zM106.808 300.612c-58.539 0-106.808 48.269-106.808 106.808s48.269 106.808 106.808 106.808 106.808-48.269 106.808-106.808-47.242-106.808-106.808-106.808zM106.808 472.123c-34.918 0-63.674-28.756-63.674-64.701s28.756-63.674 63.674-63.674 64.701 28.756 64.701 63.674-28.756 64.701-64.701 64.701zM106.808-42.408c-58.539 0-106.808 48.269-106.808 107.835s48.269 106.808 106.808 106.808 106.808-48.269 106.808-106.808-47.242-107.835-106.808-107.835zM106.808 129.103c-34.918 0-63.674-28.756-63.674-63.674s28.756-64.701 63.674-64.701 64.701 28.756 64.701 64.701-28.756 63.674-64.701 63.674zM106.808 642.605c-58.539 0-106.808 48.269-106.808 106.808s48.269 107.835 106.808 107.835 106.808-48.269 106.808-107.835-47.242-106.808-106.808-106.808zM106.808 814.115c-34.918 0-63.674-28.756-63.674-64.701s28.756-63.674 63.674-63.674 64.701 28.756 64.701 63.674-28.756 64.701-64.701 64.701z" />
<glyph unicode="&#xe897;" glyph-name="coding1" data-tags="coding" d="M321.453-84.515c-3.081 0-6.162 0-8.216 1.027-11.297 5.135-16.432 17.459-12.324 27.729l385.127 941.765c5.135 11.297 17.459 16.432 27.729 12.324 11.297-5.135 16.432-17.459 12.324-28.756l-385.127-940.738c-3.081-8.216-11.297-13.351-19.513-13.351zM748.687 86.994c-5.135 0-9.243 1.027-13.351 5.135-9.243 7.189-10.27 20.54-3.081 29.783l245.454 285.508-245.454 285.508c-7.189 9.243-6.162 22.594 3.081 30.81 8.216 7.189 22.594 6.162 29.783-3.081l256.751-298.859c7.189-8.216 7.189-20.54 0-27.729l-256.751-299.886c-4.108-5.135-10.27-7.189-16.432-7.189zM278.319 86.994c-6.162 0-12.324 2.054-16.432 7.189l-256.751 299.886c-7.189 7.189-7.189 19.513 0 27.729l256.751 298.859c8.216 9.243 21.567 10.27 29.783 3.081 9.243-8.216 10.27-21.567 3.081-30.81l-245.454-285.508 245.454-285.508c7.189-9.243 6.162-22.594-3.081-29.783-3.081-4.108-8.216-5.135-13.351-5.135z" />
<glyph unicode="&#xe898;" glyph-name="favorite1" data-tags="favorite" d="M513.502-106.082c-283.454 0-513.502 230.049-513.502 513.502s230.049 513.502 513.502 513.502 513.502-230.049 513.502-513.502-230.049-513.502-513.502-513.502zM513.502 877.789c-259.832 0-470.368-210.536-470.368-470.368s210.536-470.368 470.368-470.368 470.368 210.536 470.368 470.368-210.536 470.368-470.368 470.368zM706.58 107.536c-4.108 0-8.216 2.054-12.324 4.108l-180.753 120.159-180.753-120.159c-7.189-5.135-17.459-5.135-24.648 0s-10.27 14.378-8.216 23.621l60.593 220.806-180.753 141.726c-7.189 5.135-10.27 15.405-7.189 23.621s11.297 14.378 20.54 14.378h220.806l80.106 200.266c6.162 16.432 32.864 16.432 39.026 0l80.106-200.266h221.833c8.216 0 16.432-6.162 19.513-14.378s0-18.486-7.189-23.621l-180.753-141.726 60.593-220.806c2.054-9.243-1.027-18.486-8.216-23.621-4.108-2.054-8.216-4.108-12.324-4.108zM513.502 279.045c4.108 0 8.216-1.027 12.324-3.081l144.807-97.565-49.296 180.753c-2.054 8.216 1.027 17.459 7.189 22.594l143.78 110.916h-173.563c-8.216 0-16.432 6.162-19.513 13.351l-65.728 164.32-65.728-163.293c-3.081-8.216-11.297-14.378-19.513-14.378h-173.563l143.78-110.916c6.162-5.135 9.243-14.378 7.189-22.594l-49.296-180.753 144.807 97.565c4.108 2.054 8.216 3.081 12.324 3.081z" />
<glyph unicode="&#xe8b6;" glyph-name="icon-search" data-tags="icon-search" d="M407.192 299.773c106.312 0 192.564 86.252 192.564 192.564s-86.252 192.564-192.564 192.564-192.564-86.252-192.564-192.564 86.252-192.564 192.564-192.564zM663.943 299.773l212.622-212.622-64.189-64.189-212.622 212.622v34.099l-12.036 12.036c-48.141-42.123-112.329-66.195-180.528-66.195-154.453 0-278.816 122.357-278.816 276.81s124.363 278.816 278.816 278.816 276.81-124.363 276.81-278.816c0-68.2-24.070-132.387-66.195-180.528l12.036-12.036h34.099z" />
<glyph unicode="&#xe8b7;" glyph-name="icon-search1" data-tags="icon-search" d="M407.192 299.773c106.312 0 192.564 86.252 192.564 192.564s-86.252 192.564-192.564 192.564-192.564-86.252-192.564-192.564 86.252-192.564 192.564-192.564zM663.943 299.773l212.622-212.622-64.189-64.189-212.622 212.622v34.099l-12.036 12.036c-48.141-42.123-112.329-66.195-180.528-66.195-154.453 0-278.816 122.357-278.816 276.81s124.363 278.816 278.816 278.816 276.81-124.363 276.81-278.816c0-68.2-24.070-132.387-66.195-180.528l12.036-12.036h34.099z" />
<glyph unicode="&#xe900;" glyph-name="icon-1-1" data-tags="icon-1-1" horiz-adv-x="2493" d="M0 40.633h2494.157v-146.715h-2494.157v146.715zM0 480.778h2494.157v-146.715h-2494.157v146.715zM0 920.924h2494.157v-146.715h-2494.157v146.715z" />
<glyph unicode="&#xe901;" glyph-name="icon-1-2_1-2" data-tags="icon-1-2_1-2" horiz-adv-x="2493" d="M0 40.633h1173.721v-146.715h-1173.721v146.715zM0 480.778h1173.721v-146.715h-1173.721v146.715zM0 920.924h1173.721v-146.715h-1173.721v146.715zM1320.435 40.633h1173.721v-146.715h-1173.721v146.715zM1320.435 480.778h1173.721v-146.715h-1173.721v146.715zM1320.435 920.924h1173.721v-146.715h-1173.721v146.715z" />
<glyph unicode="&#xe902;" glyph-name="icon-1-3_1-3_1-3" data-tags="icon-1-3_1-3_1-3" horiz-adv-x="2493" d="M0 40.633h733.576v-146.715h-733.576v146.715zM0 480.778h733.576v-146.715h-733.576v146.715zM0 920.924h733.576v-146.715h-733.576v146.715zM880.291 40.633h806.932v-146.715h-806.932v146.715zM880.291 480.778h806.932v-146.715h-806.932v146.715zM880.291 920.924h806.932v-146.715h-806.932v146.715zM1833.938 40.633h660.218v-146.715h-660.218v146.715zM1833.938 480.778h660.218v-146.715h-660.218v146.715zM1833.938 920.924h660.218v-146.715h-660.218v146.715z" />
<glyph unicode="&#xe903;" glyph-name="flip-box" data-tags="flip-box" d="M834.956 857.249h-641.879c-12.324 0-21.567-10.27-21.567-21.567v-856.523c0-11.297 9.243-21.567 21.567-21.567h641.879c11.297 0 20.54 10.27 20.54 21.567v856.523c0 11.297-9.243 21.567-20.54 21.567zM813.389 0.726h-599.772v813.389h599.772v-813.389zM1025.979 271.856c-4.108 11.297-15.405 17.459-26.702 13.351l-35.945-11.297c43.134 88.322 45.188 199.239-32.864 278.319-8.216 8.216-22.594 8.216-30.81 0s-8.216-21.567 0-29.783c65.728-66.755 61.62-163.293 21.567-238.265l-16.432 48.269c-4.108 11.297-15.405 17.459-26.702 13.351s-17.459-15.405-13.351-26.702l29.783-91.403c0 0 1.027-1.027 1.027-1.027 1.027-2.054 1.027-3.081 2.054-4.108s2.054-2.054 3.081-3.081c0-1.027 1.027-1.027 1.027-2.054 0 0 1.027 0 1.027 0 1.027-1.027 2.054-1.027 3.081-2.054 2.054-1.027 6.162-2.054 9.243-2.054 2.054 0 4.108 0 6.162 1.027l91.403 30.81c11.297 3.081 17.459 15.405 13.351 26.702zM132.483 544.013c0 1.027-1.027 1.027-1.027 2.054s-1.027 2.054-2.054 4.108c-1.027 1.027-2.054 1.027-2.054 2.054-1.027 1.027-1.027 2.054-2.054 2.054-1.027 1.027-1.027 1.027-2.054 1.027s-1.027 1.027-1.027 1.027c-1.027 0-2.054 0-2.054 1.027-2.054 0-3.081 1.027-5.135 1.027-1.027 0-2.054 0-3.081 0-2.054 0-3.081 0-4.108 0-1.027-1.027-2.054-1.027-2.054-1.027l-91.403-29.783c-11.297-4.108-17.459-16.432-13.351-27.729 4.108-10.27 16.432-16.432 27.729-13.351l34.918 12.324c-43.134-88.322-45.188-200.266 33.891-279.346 4.108-4.108 9.243-6.162 14.378-6.162 6.162 0 11.297 2.054 15.405 6.162 8.216 8.216 8.216 21.567 0 30.81-65.728 65.728-60.593 162.266-21.567 237.238l16.432-47.242c3.081-9.243 11.297-15.405 20.54-15.405 2.054 0 4.108 1.027 6.162 1.027 11.297 4.108 17.459 16.432 14.378 27.729l-30.81 90.376zM321.453 557.364h385.127c11.297 0 20.54 9.243 20.54 21.567s-9.243 21.567-20.54 21.567h-385.127c-12.324 0-21.567-10.27-21.567-21.567s9.243-21.567 21.567-21.567zM321.453 428.988h385.127c11.297 0 20.54 9.243 20.54 21.567s-9.243 21.567-20.54 21.567h-385.127c-12.324 0-21.567-10.27-21.567-21.567s9.243-21.567 21.567-21.567zM321.453 300.612h385.127c11.297 0 20.54 9.243 20.54 21.567s-9.243 21.567-20.54 21.567h-385.127c-12.324 0-21.567-10.27-21.567-21.567s9.243-21.567 21.567-21.567zM321.453 172.237h170.482c12.324 0 21.567 9.243 21.567 21.567s-9.243 21.567-21.567 21.567h-170.482c-12.324 0-21.567-10.27-21.567-21.567s9.243-21.567 21.567-21.567z" />
<glyph unicode="&#xe904;" glyph-name="icon-1-4_1-2_1-4" data-tags="icon-1-4_1-2_1-4" horiz-adv-x="2493" d="M0 40.633h586.861v-146.715h-586.861v146.715zM0 480.778h586.861v-146.715h-586.861v146.715zM0 920.924h586.861v-146.715h-586.861v146.715zM733.576 40.633h1027.006v-146.715h-1027.006v146.715zM733.576 480.778h1027.006v-146.715h-1027.006v146.715zM733.576 920.924h1027.006v-146.715h-1027.006v146.715zM1907.297 40.633h586.861v-146.715h-586.861v146.715zM1907.297 480.778h586.861v-146.715h-586.861v146.715zM1907.297 920.924h586.861v-146.715h-586.861v146.715z" />
<glyph unicode="&#xe905;" glyph-name="icon-1-4_1-4_1-4_1-4" data-tags="icon-1-4_1-4_1-4_1-4" horiz-adv-x="2493" d="M0 40.633h513.502v-146.715h-513.502v146.715zM0 480.778h513.502v-146.715h-513.502v146.715zM0 920.924h513.502v-146.715h-513.502v146.715zM660.218 40.633h513.502v-146.715h-513.502v146.715zM660.218 480.778h513.502v-146.715h-513.502v146.715zM660.218 920.924h513.502v-146.715h-513.502v146.715zM1320.435 40.633h513.502v-146.715h-513.502v146.715zM1320.435 480.778h513.502v-146.715h-513.502v146.715zM1320.435 920.924h513.502v-146.715h-513.502v146.715zM1980.653 40.633h513.502v-146.715h-513.502v146.715zM1980.653 480.778h513.502v-146.715h-513.502v146.715zM1980.653 920.924h513.502v-146.715h-513.502v146.715z" />
<glyph unicode="&#xe906;" glyph-name="icon-1-4_3-4" data-tags="icon-1-4_3-4" horiz-adv-x="2493" d="M0 40.633h660.218v-146.715h-660.218v146.715zM0 480.778h660.218v-146.715h-660.218v146.715zM0 920.924h660.218v-146.715h-660.218v146.715zM806.932 40.633h1687.224v-146.715h-1687.224v146.715zM806.932 480.778h1687.224v-146.715h-1687.224v146.715zM806.932 920.924h1687.224v-146.715h-1687.224v146.715z" />
<glyph unicode="&#xe907;" glyph-name="icon-1-6_1-6_1-6_1-2" data-tags="icon-1-6_1-6_1-6_1-2" horiz-adv-x="2493" d="M0 40.633h293.43v-146.715h-293.43v146.715zM0 480.778h293.43v-146.715h-293.43v146.715zM0 920.924h293.43v-146.715h-293.43v146.715zM440.145 40.633h293.43v-146.715h-293.43v146.715zM440.145 480.778h293.43v-146.715h-293.43v146.715zM440.145 920.924h293.43v-146.715h-293.43v146.715zM880.291 40.633h293.43v-146.715h-293.43v146.715zM880.291 480.778h293.43v-146.715h-293.43v146.715zM880.291 920.924h293.43v-146.715h-293.43v146.715zM1320.435 40.633h1173.721v-146.715h-1173.721v146.715zM1320.435 480.778h1173.721v-146.715h-1173.721v146.715zM1320.435 920.924h1173.721v-146.715h-1173.721v146.715z" />
<glyph unicode="&#xe908;" glyph-name="icon-1-6_1-6_1-6_1-6_1-6_1-6" data-tags="icon-1-6_1-6_1-6_1-6_1-6_1-6" horiz-adv-x="2493" d="M0 40.633h293.43v-146.715h-293.43v146.715zM0 480.778h293.43v-146.715h-293.43v146.715zM0 920.924h293.43v-146.715h-293.43v146.715zM440.145 40.633h293.43v-146.715h-293.43v146.715zM440.145 480.778h293.43v-146.715h-293.43v146.715zM440.145 920.924h293.43v-146.715h-293.43v146.715zM880.291 40.633h293.43v-146.715h-293.43v146.715zM880.291 480.778h293.43v-146.715h-293.43v146.715zM880.291 920.924h293.43v-146.715h-293.43v146.715zM1320.435 40.633h293.43v-146.715h-293.43v146.715zM1320.435 480.778h293.43v-146.715h-293.43v146.715zM1320.435 920.924h293.43v-146.715h-293.43v146.715zM1760.582 40.633h293.43v-146.715h-293.43v146.715zM1760.582 480.778h293.43v-146.715h-293.43v146.715zM1760.582 920.924h293.43v-146.715h-293.43v146.715zM2200.727 40.633h293.43v-146.715h-293.43v146.715zM2200.727 480.778h293.43v-146.715h-293.43v146.715zM2200.727 920.924h293.43v-146.715h-293.43v146.715z" />
<glyph unicode="&#xe909;" glyph-name="icon-l_15_15_15_15_15" data-tags="icon-l_15_15_15_15_15" horiz-adv-x="2493" d="M0 40.627h356.641v-146.715h-356.641v146.715zM0 480.773h356.641v-146.715h-356.641v146.715zM0 920.92h356.641v-146.715h-356.641v146.715zM534.961 40.627h356.641v-146.715h-356.641v146.715zM534.961 480.773h356.641v-146.715h-356.641v146.715zM534.961 920.92h356.641v-146.715h-356.641v146.715zM1069.924 40.627h356.641v-146.715h-356.641v146.715zM1069.924 480.773h356.641v-146.715h-356.641v146.715zM1069.924 920.92h356.641v-146.715h-356.641v146.715zM1604.885 40.627h356.641v-146.715h-356.641v146.715zM1604.885 480.773h356.641v-146.715h-356.641v146.715zM1604.885 920.92h356.641v-146.715h-356.641v146.715zM2139.849 40.627h356.641v-146.715h-356.641v146.715zM2139.849 480.773h356.641v-146.715h-356.641v146.715zM2139.849 920.92h356.641v-146.715h-356.641v146.715z" />
<glyph unicode="&#xe90a;" glyph-name="icon-1-6_2-3_1-6" data-tags="icon-1-6_2-3_1-6" horiz-adv-x="2127" d="M0-32.724c0 40.515 32.524 73.358 74.044 73.358h145.341c40.894 0 74.044-32.562 74.044-73.358 0-40.515-32.524-73.358-74.044-73.358h-145.341c-40.894 0-74.044 32.562-74.044 73.358zM0 407.421c0 40.515 32.524 73.358 74.044 73.358h145.341c40.894 0 74.044-32.562 74.044-73.358 0-40.515-32.524-73.358-74.044-73.358h-145.341c-40.894 0-74.044 32.562-74.044 73.358zM0 847.566c0 40.515 32.524 73.358 74.044 73.358h145.341c40.894 0 74.044-32.562 74.044-73.358 0-40.515-32.524-73.358-74.044-73.358h-145.341c-40.894 0-74.044 32.562-74.044 73.358zM366.787-32.724c0 40.515 33.078 73.358 72.973 73.358h1247.845c40.301 0 72.973-32.562 72.973-73.358 0-40.515-33.078-73.358-72.973-73.358h-1247.845c-40.301 0-72.973 32.562-72.973 73.358zM366.787 407.421c0 40.515 33.078 73.358 72.973 73.358h1247.845c40.301 0 72.973-32.562 72.973-73.358 0-40.515-33.078-73.358-72.973-73.358h-1247.845c-40.301 0-72.973 32.562-72.973 73.358zM366.787 847.566c0 40.515 33.078 73.358 72.973 73.358h1247.845c40.301 0 72.973-32.562 72.973-73.358 0-40.515-33.078-73.358-72.973-73.358h-1247.845c-40.301 0-72.973 32.562-72.973 73.358zM1833.938-32.724c0 40.515 32.524 73.358 74.044 73.358h145.341c40.894 0 74.044-32.562 74.044-73.358 0-40.515-32.524-73.358-74.044-73.358h-145.341c-40.894 0-74.044 32.562-74.044 73.358zM1833.938 407.421c0 40.515 32.524 73.358 74.044 73.358h145.341c40.894 0 74.044-32.562 74.044-73.358 0-40.515-32.524-73.358-74.044-73.358h-145.341c-40.894 0-74.044 32.562-74.044 73.358zM1833.938 847.566c0 40.515 32.524 73.358 74.044 73.358h145.341c40.894 0 74.044-32.562 74.044-73.358 0-40.515-32.524-73.358-74.044-73.358h-145.341c-40.894 0-74.044 32.562-74.044 73.358z" />
<glyph unicode="&#xe90b;" glyph-name="icon-2-3_1-3" data-tags="icon-2-3_1-3" horiz-adv-x="2493" d="M0 40.633h1540.508v-146.715h-1540.508v146.715zM0 480.778h1540.508v-146.715h-1540.508v146.715zM0 920.924h1540.508v-146.715h-1540.508v146.715zM1687.224 40.633h806.932v-146.715h-806.932v146.715zM1687.224 480.778h806.932v-146.715h-806.932v146.715zM1687.224 920.924h806.932v-146.715h-806.932v146.715z" />
<glyph unicode="&#xe90c;" glyph-name="icon-5-6_1-6" data-tags="icon-5-6_1-6" horiz-adv-x="2493" d="M0 40.633h2054.012v-146.715h-2054.012v146.715zM0 480.778h2054.012v-146.715h-2054.012v146.715zM0 920.924h2054.012v-146.715h-2054.012v146.715zM2200.727 40.633h293.43v-146.715h-293.43v146.715zM2200.727 480.778h293.43v-146.715h-293.43v146.715zM2200.727 920.924h293.43v-146.715h-293.43v146.715z" />
<glyph unicode="&#xe90d;" glyph-name="icon-add_element" data-tags="icon-add_element" d="M440.145 480.778h-367.109c-40.029 0-73.036-32.843-73.036-73.358 0-40.797 32.7-73.358 73.036-73.358h367.109v-367.109c0-40.029 32.843-73.036 73.358-73.036 40.797 0 73.358 32.7 73.358 73.036v367.109h367.109c40.029 0 73.036 32.843 73.036 73.358 0 40.797-32.7 73.358-73.036 73.358h-367.109v367.109c0 40.029-32.843 73.036-73.358 73.036-40.797 0-73.358-32.7-73.358-73.036v-367.109z" />
<glyph unicode="&#xe90e;" glyph-name="icon-1-6_4-6_1-6" data-tags="icon-1-6_4-6_1-6" horiz-adv-x="2493" d="M0 40.633h293.43v-146.715h-293.43v146.715zM0 480.778h293.43v-146.715h-293.43v146.715zM0 920.924h293.43v-146.715h-293.43v146.715zM440.145 40.633h1613.867v-146.715h-1613.867v146.715zM440.145 480.778h1613.867v-146.715h-1613.867v146.715zM440.145 920.924h1613.867v-146.715h-1613.867v146.715zM2200.727 40.633h293.43v-146.715h-293.43v146.715zM2200.727 480.778h293.43v-146.715h-293.43v146.715zM2200.727 920.924h293.43v-146.715h-293.43v146.715z" />
<glyph unicode="&#xe90f;" glyph-name="icon-add" data-tags="icon-add" d="M449.315 471.608h-385.071c-35.704 0-64.245-28.738-64.245-64.189 0-35.698 28.763-64.189 64.245-64.189h385.071v-385.071c0-35.704 28.738-64.245 64.189-64.245 35.698 0 64.189 28.763 64.189 64.245v385.071h385.071c35.704 0 64.245 28.738 64.245 64.189 0 35.698-28.763 64.189-64.245 64.189h-385.071v385.071c0 35.704-28.738 64.245-64.189 64.245-35.698 0-64.189-28.763-64.189-64.245v-385.071z" />
<glyph unicode="&#xe910;" glyph-name="icon-cog" data-tags="icon-cog" d="M1027.006 407.421c0 38.194-27.522 78.914-61.451 90.925s-66.818 41.419-76.389 64.612c-9.569 23.194-7.087 67.329 8.402 99.835 15.468 32.509 6.090 80.782-20.921 107.793-26.99 27.011-75.263 36.369-107.793 20.9-32.509-15.468-76.581-17.995-99.708-8.423s-52.559 42.502-64.612 76.432c-12.074 33.929-52.836 61.43-91.031 61.43s-78.956-27.501-91.031-61.43c-12.074-33.929-41.483-66.861-64.612-76.432s-67.223-7.045-99.729 8.423c-32.509 15.468-80.782 6.111-107.793-20.9s-36.369-75.263-20.9-107.793c15.468-32.53 17.93-76.623 8.318-99.792s-42.395-52.644-76.325-64.654c-33.929-12.011-61.43-52.728-61.43-90.925s27.501-78.956 61.43-91.031c33.929-12.053 66.755-41.526 76.368-64.654 9.611-23.109 7.109-67.18-8.36-99.687s-6.111-80.782 20.9-107.793c27.011-26.99 75.263-36.369 107.793-20.9s76.602 17.974 99.729 8.381c23.151-9.59 52.538-42.609 64.612-76.475s52.836-61.345 91.031-61.345c38.194 0 78.956 27.479 91.031 61.345 12.053 33.866 41.44 66.84 64.57 76.475 23.13 9.611 67.266 7.087 99.75-8.402 32.53-15.468 80.803-6.090 107.793 20.9 27.011 27.011 36.391 75.285 20.921 107.793-15.468 32.53-18.016 76.602-8.444 99.729s42.523 52.559 76.454 64.612c33.929 12.096 61.43 52.858 61.43 91.052zM513.41 167.886c-132.527 0-239.685 107.156-239.685 239.414 0 132.527 107.156 239.685 239.685 239.685 132.231 0 239.414-107.156 239.414-239.685 0-132.258-107.156-239.414-239.414-239.414z" />
<glyph unicode="&#xe911;" glyph-name="icon-content_copy" data-tags="icon-content_copy" d="M0 510.316c0 113.333 92.349 205.206 205.799 205.206h341.542c113.66 0 205.799-91.858 205.799-205.206v-411.193c0-113.333-92.349-205.206-205.799-205.206h-341.542c-113.66 0-205.799 91.858-205.799 205.206v411.193zM136.934 441.784v-274.128c0-76.093 61.489-136.804 137.339-136.804h204.591c76.64 0 137.339 61.25 137.339 136.804v274.128c0 76.093-61.489 136.804-137.339 136.804h-204.591c-76.64 0-137.339-61.25-137.339-136.804zM753.137 99.319h68.069c113.45 0 205.799 91.875 205.799 205.206v411.193c0 113.349-92.139 205.206-205.799 205.206h-341.542c-113.45 0-205.799-91.875-205.799-205.206v-0.194h155.097c23.561 40.927 67.784 68.468 119.175 68.468h204.591c75.85 0 137.339-60.709 137.339-136.804v-274.128c0-75.423-60.486-136.587-136.934-136.803v-136.935z" />
<glyph unicode="&#xe912;" glyph-name="icon-delete_empty" data-tags="icon-delete_empty" d="M513.502 528.456l-363.049 363.049c-33.662 33.662-87.664 33.476-121.086 0.053-33.656-33.656-33.4-87.634 0.053-121.086l363.049-363.049-363.049-363.049c-33.662-33.662-33.476-87.664-0.053-121.086 33.656-33.656 87.634-33.4 121.086 0.053l363.049 363.049 363.049-363.049c33.662-33.662 87.664-33.476 121.086-0.053 33.656 33.656 33.4 87.634-0.053 121.086l-363.049 363.049 363.049 363.049c33.662 33.662 33.476 87.664 0.053 121.086-33.656 33.656-87.634 33.4-121.086-0.053l-363.049-363.049z" />
</font>
</defs>
</svg>
